%TF.GenerationSoftware,KiCad,Pcbnew,(6.0.6)*%
%TF.CreationDate,2023-06-07T09:40:16+01:00*%
%TF.ProjectId,DC_DC_Controller,44435f44-435f-4436-9f6e-74726f6c6c65,rev?*%
%TF.SameCoordinates,Original*%
%TF.FileFunction,Copper,L1,Top*%
%TF.FilePolarity,Positive*%
%FSLAX46Y46*%
G04 Gerber Fmt 4.6, Leading zero omitted, Abs format (unit mm)*
G04 Created by KiCad (PCBNEW (6.0.6)) date 2023-06-07 09:40:16*
%MOMM*%
%LPD*%
G01*
G04 APERTURE LIST*
G04 Aperture macros list*
%AMRoundRect*
0 Rectangle with rounded corners*
0 $1 Rounding radius*
0 $2 $3 $4 $5 $6 $7 $8 $9 X,Y pos of 4 corners*
0 Add a 4 corners polygon primitive as box body*
4,1,4,$2,$3,$4,$5,$6,$7,$8,$9,$2,$3,0*
0 Add four circle primitives for the rounded corners*
1,1,$1+$1,$2,$3*
1,1,$1+$1,$4,$5*
1,1,$1+$1,$6,$7*
1,1,$1+$1,$8,$9*
0 Add four rect primitives between the rounded corners*
20,1,$1+$1,$2,$3,$4,$5,0*
20,1,$1+$1,$4,$5,$6,$7,0*
20,1,$1+$1,$6,$7,$8,$9,0*
20,1,$1+$1,$8,$9,$2,$3,0*%
G04 Aperture macros list end*
%TA.AperFunction,SMDPad,CuDef*%
%ADD10R,1.500000X1.300000*%
%TD*%
%TA.AperFunction,SMDPad,CuDef*%
%ADD11R,1.300000X1.500000*%
%TD*%
%TA.AperFunction,SMDPad,CuDef*%
%ADD12R,1.500000X1.000000*%
%TD*%
%TA.AperFunction,SMDPad,CuDef*%
%ADD13RoundRect,0.150000X0.150000X-0.587500X0.150000X0.587500X-0.150000X0.587500X-0.150000X-0.587500X0*%
%TD*%
%TA.AperFunction,ComponentPad*%
%ADD14R,2.499360X2.499360*%
%TD*%
%TA.AperFunction,ComponentPad*%
%ADD15C,2.499360*%
%TD*%
%TA.AperFunction,ComponentPad*%
%ADD16C,3.000000*%
%TD*%
%TA.AperFunction,ComponentPad*%
%ADD17R,3.000000X3.000000*%
%TD*%
%TA.AperFunction,SMDPad,CuDef*%
%ADD18R,1.198880X1.198880*%
%TD*%
%TA.AperFunction,ViaPad*%
%ADD19C,0.800000*%
%TD*%
%TA.AperFunction,Conductor*%
%ADD20C,0.300000*%
%TD*%
%TA.AperFunction,Conductor*%
%ADD21C,1.000000*%
%TD*%
G04 APERTURE END LIST*
D10*
%TO.P,R4,2*%
%TO.N,Net-(J1-Pad2)*%
X151130000Y-123820000D03*
%TO.P,R4,1*%
%TO.N,Net-(Q1-Pad1)*%
X151130000Y-121920000D03*
%TD*%
D11*
%TO.P,R1,1*%
%TO.N,Net-(DCDC1-Pad1)*%
X155115200Y-124000000D03*
%TO.P,R1,2*%
%TO.N,Net-(Q1-Pad1)*%
X153215200Y-124000000D03*
%TD*%
%TO.P,R3,1*%
%TO.N,Net-(D1-Pad2)*%
X159258000Y-77216000D03*
%TO.P,R3,2*%
%TO.N,Net-(J5-Pad2)*%
X161158000Y-77216000D03*
%TD*%
D12*
%TO.P,J5,1,Pin_1*%
%TO.N,Net-(DCDC1-Pad3)*%
X159308800Y-79248000D03*
%TO.P,J5,2,Pin_2*%
%TO.N,Net-(J5-Pad2)*%
X160909000Y-79248000D03*
%TD*%
D13*
%TO.P,Q1,1,G*%
%TO.N,Net-(Q1-Pad1)*%
X153265200Y-121437500D03*
%TO.P,Q1,2,S*%
%TO.N,Net-(DCDC1-Pad1)*%
X155165200Y-121437500D03*
%TO.P,Q1,3,D*%
%TO.N,Net-(Q1-Pad3)*%
X154215200Y-119562500D03*
%TD*%
%TO.P,Q2,1,G*%
%TO.N,Net-(Q1-Pad3)*%
X157765200Y-121375000D03*
%TO.P,Q2,2,S*%
%TO.N,Net-(J1-Pad3)*%
X159665200Y-121375000D03*
%TO.P,Q2,3,D*%
%TO.N,Net-(DCDC1-Pad2)*%
X158715200Y-119500000D03*
%TD*%
D11*
%TO.P,R2,1*%
%TO.N,Net-(Q1-Pad3)*%
X157815200Y-124000000D03*
%TO.P,R2,2*%
%TO.N,Net-(J1-Pad3)*%
X159715200Y-124000000D03*
%TD*%
D14*
%TO.P,J1,1,Pin_1*%
%TO.N,Net-(DCDC1-Pad1)*%
X148420000Y-129500000D03*
D15*
%TO.P,J1,2,Pin_2*%
%TO.N,Net-(J1-Pad2)*%
X153500000Y-129500000D03*
%TO.P,J1,3,Pin_3*%
%TO.N,Net-(J1-Pad3)*%
X158580000Y-129500000D03*
%TD*%
D14*
%TO.P,J6,1,Pin_1*%
%TO.N,Net-(D1-Pad1)*%
X148590000Y-76500000D03*
D15*
%TO.P,J6,2,Pin_2*%
%TO.N,Net-(DCDC1-Pad3)*%
X153670000Y-76500000D03*
%TD*%
D16*
%TO.P,DCDC1,1,-Vin*%
%TO.N,Net-(DCDC1-Pad1)*%
X149105000Y-115000000D03*
D17*
%TO.P,DCDC1,2,+Vin*%
%TO.N,Net-(DCDC1-Pad2)*%
X156605000Y-115000000D03*
%TO.P,DCDC1,3,+Vout*%
%TO.N,Net-(DCDC1-Pad3)*%
X156605000Y-84500000D03*
D16*
%TO.P,DCDC1,4,-Vout*%
%TO.N,Net-(D1-Pad1)*%
X149105000Y-84500000D03*
%TD*%
D18*
%TO.P,D1,1,K*%
%TO.N,Net-(D1-Pad1)*%
X157480000Y-79060040D03*
%TO.P,D1,2,A*%
%TO.N,Net-(D1-Pad2)*%
X157480000Y-76962000D03*
%TD*%
D19*
%TO.N,Net-(DCDC1-Pad1)*%
X156464000Y-124968000D03*
%TD*%
D20*
%TO.N,Net-(DCDC1-Pad1)*%
X155496000Y-124000000D02*
X156464000Y-124968000D01*
X155115200Y-124000000D02*
X155496000Y-124000000D01*
%TO.N,Net-(Q1-Pad1)*%
X153215200Y-121487500D02*
X153265200Y-121437500D01*
X153215200Y-124000000D02*
X153215200Y-121487500D01*
D21*
%TO.N,Net-(J1-Pad3)*%
X159715200Y-125272800D02*
X159715200Y-123139200D01*
D20*
X159665200Y-121375000D02*
X159665200Y-123089200D01*
D21*
X159715200Y-123139200D02*
X159665200Y-123089200D01*
X159715200Y-125272800D02*
X159715200Y-124000000D01*
X159715200Y-125780800D02*
X159715200Y-125272800D01*
D20*
X159665200Y-123089200D02*
X159665200Y-123950000D01*
%TO.N,Net-(DCDC1-Pad2)*%
X158715200Y-118144800D02*
X158750000Y-118110000D01*
X158715200Y-119500000D02*
X158715200Y-118144800D01*
%TO.N,Net-(J1-Pad3)*%
X159665200Y-123950000D02*
X159715200Y-124000000D01*
%TO.N,Net-(Q1-Pad3)*%
X157815200Y-121425000D02*
X157765200Y-121375000D01*
X157815200Y-124000000D02*
X157815200Y-121425000D01*
%TO.N,Net-(DCDC1-Pad1)*%
X155115200Y-121487500D02*
X155165200Y-121437500D01*
X155115200Y-124000000D02*
X155115200Y-121487500D01*
%TO.N,Net-(Q1-Pad3)*%
X157765200Y-120681200D02*
X157765200Y-121375000D01*
X156646500Y-119562500D02*
X157765200Y-120681200D01*
X154215200Y-119562500D02*
X156646500Y-119562500D01*
%TO.N,Net-(Q1-Pad1)*%
X153239700Y-121412000D02*
X153265200Y-121437500D01*
X152400000Y-121412000D02*
X153239700Y-121412000D01*
X151892000Y-121920000D02*
X152400000Y-121412000D01*
X151130000Y-121920000D02*
X151892000Y-121920000D01*
D21*
%TO.N,Net-(J1-Pad2)*%
X153500000Y-127592000D02*
X151130000Y-125222000D01*
X153500000Y-129500000D02*
X153500000Y-127592000D01*
X151130000Y-125222000D02*
X151130000Y-123820000D01*
%TO.N,Net-(J1-Pad3)*%
X158580000Y-126916000D02*
X159715200Y-125780800D01*
X158580000Y-129500000D02*
X158580000Y-126916000D01*
%TO.N,Net-(DCDC1-Pad2)*%
X158750000Y-116840000D02*
X158750000Y-118110000D01*
X156910000Y-115000000D02*
X158750000Y-116840000D01*
X156605000Y-115000000D02*
X156910000Y-115000000D01*
%TO.N,Net-(DCDC1-Pad1)*%
X149925000Y-115000000D02*
X149105000Y-115000000D01*
%TO.N,Net-(DCDC1-Pad3)*%
X153670000Y-81280000D02*
X153670000Y-76500000D01*
X156605000Y-84215000D02*
X153670000Y-81280000D01*
D20*
X159308800Y-83896200D02*
X158705000Y-84500000D01*
X158705000Y-84500000D02*
X156605000Y-84500000D01*
X159308800Y-79248000D02*
X159308800Y-83896200D01*
D21*
X156605000Y-84500000D02*
X156605000Y-84215000D01*
%TO.N,Net-(D1-Pad1)*%
X149105000Y-80525000D02*
X148590000Y-80010000D01*
D20*
X154940000Y-73660000D02*
X149225000Y-73660000D01*
D21*
X148590000Y-80010000D02*
X148590000Y-76500000D01*
D20*
X157480000Y-79060040D02*
X156530040Y-79060040D01*
D21*
X149105000Y-84500000D02*
X149105000Y-80525000D01*
D20*
X156530040Y-79060040D02*
X156210000Y-78740000D01*
X156210000Y-74930000D02*
X154940000Y-73660000D01*
X148590000Y-74295000D02*
X148590000Y-76500000D01*
X156210000Y-78740000D02*
X156210000Y-74930000D01*
X149225000Y-73660000D02*
X148590000Y-74295000D01*
%TO.N,Net-(D1-Pad2)*%
X159004000Y-76962000D02*
X159258000Y-77216000D01*
X157480000Y-76962000D02*
X159004000Y-76962000D01*
%TO.N,Net-(J5-Pad2)*%
X161158000Y-77216000D02*
X161158000Y-78999000D01*
X161158000Y-78999000D02*
X160909000Y-79248000D01*
%TD*%
M02*
