%TF.GenerationSoftware,KiCad,Pcbnew,(6.0.6)*%
%TF.CreationDate,2023-06-07T09:40:16+01:00*%
%TF.ProjectId,DC_DC_Controller,44435f44-435f-4436-9f6e-74726f6c6c65,rev?*%
%TF.SameCoordinates,Original*%
%TF.FileFunction,Profile,NP*%
%FSLAX46Y46*%
G04 Gerber Fmt 4.6, Leading zero omitted, Abs format (unit mm)*
G04 Created by KiCad (PCBNEW (6.0.6)) date 2023-06-07 09:40:16*
%MOMM*%
%LPD*%
G01*
G04 APERTURE LIST*
%TA.AperFunction,Profile*%
%ADD10C,0.100000*%
%TD*%
G04 APERTURE END LIST*
D10*
%TO.C,J2*%
X144968108Y-135125288D02*
X144798908Y-134998888D01*
X144264708Y-71649388D02*
X144374708Y-71468388D01*
X144264708Y-134350488D02*
X144172308Y-134158188D01*
X145544108Y-135401388D02*
X145341808Y-135327688D01*
X144011308Y-133525888D02*
X144000008Y-133300388D01*
X159800408Y-70500388D02*
X160025908Y-70511388D01*
X145149508Y-70764388D02*
X145341808Y-70672388D01*
X144642808Y-71142388D02*
X144798908Y-71001388D01*
X161357108Y-71142388D02*
X161498908Y-71299388D01*
X144044508Y-72255288D02*
X144098608Y-72044088D01*
X161625308Y-71468388D02*
X161735308Y-71649388D01*
X162000008Y-133300388D02*
X161988708Y-133525888D01*
X144798908Y-71001388D02*
X144968108Y-70874388D01*
X160244708Y-70544388D02*
X160455908Y-70598388D01*
X144000008Y-133300388D02*
X144000008Y-133300388D01*
X161901408Y-72044088D02*
X161955508Y-72255288D01*
X161901408Y-133955888D02*
X161827708Y-134158188D01*
X145149508Y-135235288D02*
X144968108Y-135125288D01*
X144374708Y-71468388D02*
X144501108Y-71299388D01*
X161357108Y-134857188D02*
X161201108Y-134998888D01*
X160025908Y-135488688D02*
X159800408Y-135499988D01*
X144098608Y-133955888D02*
X144044508Y-133744788D01*
X159800408Y-135499988D02*
X146199608Y-135499988D01*
X146199608Y-70500388D02*
X159800408Y-70500388D01*
X145755208Y-135455488D02*
X145544108Y-135401388D01*
X161625308Y-134531888D02*
X161498908Y-134701088D01*
X161988708Y-72474088D02*
X162000008Y-72699688D01*
X161735308Y-134350488D02*
X161625308Y-134531888D01*
X162000008Y-72699688D02*
X162000008Y-133300388D01*
X145341808Y-135327688D02*
X145149508Y-135235288D01*
X144501108Y-71299388D02*
X144642808Y-71142388D01*
X144374708Y-134531888D02*
X144264708Y-134350488D01*
X161031908Y-70874388D02*
X161201108Y-71001388D01*
X160850508Y-135235288D02*
X160658108Y-135327688D01*
X144098608Y-72044088D02*
X144172308Y-71841388D01*
X144501108Y-134701088D02*
X144374708Y-134531888D01*
X161201108Y-134998888D02*
X161031908Y-135125288D01*
X161955508Y-133744788D02*
X161901408Y-133955888D01*
X160025908Y-70511388D02*
X160244708Y-70544388D01*
X160658108Y-135327688D02*
X160455908Y-135401388D01*
X161498908Y-134701088D02*
X161357108Y-134857188D01*
X161988708Y-133525888D02*
X161955508Y-133744788D01*
X144172308Y-71841388D02*
X144264708Y-71649388D01*
X144798908Y-134998888D02*
X144642808Y-134857188D01*
X161201108Y-71001388D02*
X161357108Y-71142388D01*
X160658108Y-70672388D02*
X160850508Y-70764388D01*
X160455908Y-70598388D02*
X160658108Y-70672388D01*
X144011308Y-72474088D02*
X144044508Y-72255288D01*
X160850508Y-70764388D02*
X161031908Y-70874388D01*
X161498908Y-71299388D02*
X161625308Y-71468388D01*
X144000008Y-133300388D02*
X144000008Y-133300388D01*
X145544108Y-70598388D02*
X145755208Y-70544388D01*
X144172308Y-134158188D02*
X144098608Y-133955888D01*
X144044508Y-133744788D02*
X144011308Y-133525888D01*
X144000008Y-133300388D02*
X144000008Y-72699688D01*
X146199608Y-135499988D02*
X145974108Y-135488688D01*
X144968108Y-70874388D02*
X145149508Y-70764388D01*
X144000008Y-72699688D02*
X144011308Y-72474088D01*
X161827708Y-71841388D02*
X161901408Y-72044088D01*
X161735308Y-71649388D02*
X161827708Y-71841388D01*
X145974108Y-135488688D02*
X145755208Y-135455488D01*
X161827708Y-134158188D02*
X161735308Y-134350488D01*
X145974108Y-70511388D02*
X146199608Y-70500388D01*
X161031908Y-135125288D02*
X160850508Y-135235288D01*
X144642808Y-134857188D02*
X144501108Y-134701088D01*
X160244708Y-135455488D02*
X160025908Y-135488688D01*
X161955508Y-72255288D02*
X161988708Y-72474088D01*
X160455908Y-135401388D02*
X160244708Y-135455488D01*
X145341808Y-70672388D02*
X145544108Y-70598388D01*
X145755208Y-70544388D02*
X145974108Y-70511388D01*
%TD*%
M02*
