%TF.GenerationSoftware,KiCad,Pcbnew,(6.0.6)*%
%TF.CreationDate,2023-06-07T09:40:16+01:00*%
%TF.ProjectId,DC_DC_Controller,44435f44-435f-4436-9f6e-74726f6c6c65,rev?*%
%TF.SameCoordinates,Original*%
%TF.FileFunction,Legend,Top*%
%TF.FilePolarity,Positive*%
%FSLAX46Y46*%
G04 Gerber Fmt 4.6, Leading zero omitted, Abs format (unit mm)*
G04 Created by KiCad (PCBNEW (6.0.6)) date 2023-06-07 09:40:16*
%MOMM*%
%LPD*%
G01*
G04 APERTURE LIST*
%ADD10C,0.300000*%
%ADD11C,0.100000*%
%ADD12C,0.254000*%
%ADD13C,0.250000*%
%ADD14C,0.304800*%
%ADD15C,0.150000*%
%ADD16C,0.200000*%
%ADD17C,0.010000*%
%ADD18C,0.120000*%
%ADD19C,0.066040*%
G04 APERTURE END LIST*
D10*
X151154000Y-86808571D02*
X151439714Y-86808571D01*
X151582571Y-86880000D01*
X151725428Y-87022857D01*
X151796857Y-87308571D01*
X151796857Y-87808571D01*
X151725428Y-88094285D01*
X151582571Y-88237142D01*
X151439714Y-88308571D01*
X151154000Y-88308571D01*
X151011142Y-88237142D01*
X150868285Y-88094285D01*
X150796857Y-87808571D01*
X150796857Y-87308571D01*
X150868285Y-87022857D01*
X151011142Y-86880000D01*
X151154000Y-86808571D01*
X152439714Y-86808571D02*
X152439714Y-88022857D01*
X152511142Y-88165714D01*
X152582571Y-88237142D01*
X152725428Y-88308571D01*
X153011142Y-88308571D01*
X153154000Y-88237142D01*
X153225428Y-88165714D01*
X153296857Y-88022857D01*
X153296857Y-86808571D01*
X153796857Y-86808571D02*
X154654000Y-86808571D01*
X154225428Y-88308571D02*
X154225428Y-86808571D01*
X150158000Y-98656071D02*
X150158000Y-97156071D01*
X150729428Y-97156071D01*
X150872285Y-97227500D01*
X150943714Y-97298928D01*
X151015142Y-97441785D01*
X151015142Y-97656071D01*
X150943714Y-97798928D01*
X150872285Y-97870357D01*
X150729428Y-97941785D01*
X150158000Y-97941785D01*
X151872285Y-98656071D02*
X151729428Y-98584642D01*
X151658000Y-98441785D01*
X151658000Y-97156071D01*
X153086571Y-98656071D02*
X153086571Y-97870357D01*
X153015142Y-97727500D01*
X152872285Y-97656071D01*
X152586571Y-97656071D01*
X152443714Y-97727500D01*
X153086571Y-98584642D02*
X152943714Y-98656071D01*
X152586571Y-98656071D01*
X152443714Y-98584642D01*
X152372285Y-98441785D01*
X152372285Y-98298928D01*
X152443714Y-98156071D01*
X152586571Y-98084642D01*
X152943714Y-98084642D01*
X153086571Y-98013214D01*
X154443714Y-98584642D02*
X154300857Y-98656071D01*
X154015142Y-98656071D01*
X153872285Y-98584642D01*
X153800857Y-98513214D01*
X153729428Y-98370357D01*
X153729428Y-97941785D01*
X153800857Y-97798928D01*
X153872285Y-97727500D01*
X154015142Y-97656071D01*
X154300857Y-97656071D01*
X154443714Y-97727500D01*
X155658000Y-98584642D02*
X155515142Y-98656071D01*
X155229428Y-98656071D01*
X155086571Y-98584642D01*
X155015142Y-98441785D01*
X155015142Y-97870357D01*
X155086571Y-97727500D01*
X155229428Y-97656071D01*
X155515142Y-97656071D01*
X155658000Y-97727500D01*
X155729428Y-97870357D01*
X155729428Y-98013214D01*
X155015142Y-98156071D01*
X149336571Y-101071071D02*
X149336571Y-99571071D01*
X149693714Y-99571071D01*
X149908000Y-99642500D01*
X150050857Y-99785357D01*
X150122285Y-99928214D01*
X150193714Y-100213928D01*
X150193714Y-100428214D01*
X150122285Y-100713928D01*
X150050857Y-100856785D01*
X149908000Y-100999642D01*
X149693714Y-101071071D01*
X149336571Y-101071071D01*
X151693714Y-100928214D02*
X151622285Y-100999642D01*
X151408000Y-101071071D01*
X151265142Y-101071071D01*
X151050857Y-100999642D01*
X150908000Y-100856785D01*
X150836571Y-100713928D01*
X150765142Y-100428214D01*
X150765142Y-100213928D01*
X150836571Y-99928214D01*
X150908000Y-99785357D01*
X151050857Y-99642500D01*
X151265142Y-99571071D01*
X151408000Y-99571071D01*
X151622285Y-99642500D01*
X151693714Y-99713928D01*
X152336571Y-100499642D02*
X153479428Y-100499642D01*
X154193714Y-101071071D02*
X154193714Y-99571071D01*
X154550857Y-99571071D01*
X154765142Y-99642500D01*
X154908000Y-99785357D01*
X154979428Y-99928214D01*
X155050857Y-100213928D01*
X155050857Y-100428214D01*
X154979428Y-100713928D01*
X154908000Y-100856785D01*
X154765142Y-100999642D01*
X154550857Y-101071071D01*
X154193714Y-101071071D01*
X156550857Y-100928214D02*
X156479428Y-100999642D01*
X156265142Y-101071071D01*
X156122285Y-101071071D01*
X155908000Y-100999642D01*
X155765142Y-100856785D01*
X155693714Y-100713928D01*
X155622285Y-100428214D01*
X155622285Y-100213928D01*
X155693714Y-99928214D01*
X155765142Y-99785357D01*
X155908000Y-99642500D01*
X156122285Y-99571071D01*
X156265142Y-99571071D01*
X156479428Y-99642500D01*
X156550857Y-99713928D01*
X149943714Y-102700357D02*
X150158000Y-102771785D01*
X150229428Y-102843214D01*
X150300857Y-102986071D01*
X150300857Y-103200357D01*
X150229428Y-103343214D01*
X150158000Y-103414642D01*
X150015142Y-103486071D01*
X149443714Y-103486071D01*
X149443714Y-101986071D01*
X149943714Y-101986071D01*
X150086571Y-102057500D01*
X150158000Y-102128928D01*
X150229428Y-102271785D01*
X150229428Y-102414642D01*
X150158000Y-102557500D01*
X150086571Y-102628928D01*
X149943714Y-102700357D01*
X149443714Y-102700357D01*
X151158000Y-103486071D02*
X151015142Y-103414642D01*
X150943714Y-103343214D01*
X150872285Y-103200357D01*
X150872285Y-102771785D01*
X150943714Y-102628928D01*
X151015142Y-102557500D01*
X151158000Y-102486071D01*
X151372285Y-102486071D01*
X151515142Y-102557500D01*
X151586571Y-102628928D01*
X151658000Y-102771785D01*
X151658000Y-103200357D01*
X151586571Y-103343214D01*
X151515142Y-103414642D01*
X151372285Y-103486071D01*
X151158000Y-103486071D01*
X152943714Y-103486071D02*
X152943714Y-102700357D01*
X152872285Y-102557500D01*
X152729428Y-102486071D01*
X152443714Y-102486071D01*
X152300857Y-102557500D01*
X152943714Y-103414642D02*
X152800857Y-103486071D01*
X152443714Y-103486071D01*
X152300857Y-103414642D01*
X152229428Y-103271785D01*
X152229428Y-103128928D01*
X152300857Y-102986071D01*
X152443714Y-102914642D01*
X152800857Y-102914642D01*
X152943714Y-102843214D01*
X153658000Y-103486071D02*
X153658000Y-102486071D01*
X153658000Y-102771785D02*
X153729428Y-102628928D01*
X153800857Y-102557500D01*
X153943714Y-102486071D01*
X154086571Y-102486071D01*
X155229428Y-103486071D02*
X155229428Y-101986071D01*
X155229428Y-103414642D02*
X155086571Y-103486071D01*
X154800857Y-103486071D01*
X154658000Y-103414642D01*
X154586571Y-103343214D01*
X154515142Y-103200357D01*
X154515142Y-102771785D01*
X154586571Y-102628928D01*
X154658000Y-102557500D01*
X154800857Y-102486071D01*
X155086571Y-102486071D01*
X155229428Y-102557500D01*
X150729428Y-105901071D02*
X150729428Y-104401071D01*
X150729428Y-105115357D02*
X151586571Y-105115357D01*
X151586571Y-105901071D02*
X151586571Y-104401071D01*
X152872285Y-105829642D02*
X152729428Y-105901071D01*
X152443714Y-105901071D01*
X152300857Y-105829642D01*
X152229428Y-105686785D01*
X152229428Y-105115357D01*
X152300857Y-104972500D01*
X152443714Y-104901071D01*
X152729428Y-104901071D01*
X152872285Y-104972500D01*
X152943714Y-105115357D01*
X152943714Y-105258214D01*
X152229428Y-105401071D01*
X153586571Y-105901071D02*
X153586571Y-104901071D01*
X153586571Y-105186785D02*
X153658000Y-105043928D01*
X153729428Y-104972500D01*
X153872285Y-104901071D01*
X154015142Y-104901071D01*
X155086571Y-105829642D02*
X154943714Y-105901071D01*
X154658000Y-105901071D01*
X154515142Y-105829642D01*
X154443714Y-105686785D01*
X154443714Y-105115357D01*
X154515142Y-104972500D01*
X154658000Y-104901071D01*
X154943714Y-104901071D01*
X155086571Y-104972500D01*
X155158000Y-105115357D01*
X155158000Y-105258214D01*
X154443714Y-105401071D01*
X152122285Y-115486571D02*
X152122285Y-113986571D01*
X152836571Y-115486571D02*
X152836571Y-113986571D01*
X153693714Y-115486571D01*
X153693714Y-113986571D01*
D11*
%TO.C,J5*%
X158981904Y-80535428D02*
X158791428Y-80535428D01*
X158791428Y-79935428D01*
X159115238Y-80221142D02*
X159248571Y-80221142D01*
X159305714Y-80535428D02*
X159115238Y-80535428D01*
X159115238Y-79935428D01*
X159305714Y-79935428D01*
X159477142Y-80535428D02*
X159477142Y-79935428D01*
X159572380Y-79935428D01*
X159629523Y-79964000D01*
X159667619Y-80021142D01*
X159686666Y-80078285D01*
X159705714Y-80192571D01*
X159705714Y-80278285D01*
X159686666Y-80392571D01*
X159667619Y-80449714D01*
X159629523Y-80506857D01*
X159572380Y-80535428D01*
X159477142Y-80535428D01*
X160181904Y-80535428D02*
X160181904Y-79935428D01*
X160334285Y-79935428D01*
X160372380Y-79964000D01*
X160391428Y-79992571D01*
X160410476Y-80049714D01*
X160410476Y-80135428D01*
X160391428Y-80192571D01*
X160372380Y-80221142D01*
X160334285Y-80249714D01*
X160181904Y-80249714D01*
X160543809Y-79935428D02*
X160639047Y-80535428D01*
X160715238Y-80106857D01*
X160791428Y-80535428D01*
X160886666Y-79935428D01*
X161267619Y-80535428D02*
X161134285Y-80249714D01*
X161039047Y-80535428D02*
X161039047Y-79935428D01*
X161191428Y-79935428D01*
X161229523Y-79964000D01*
X161248571Y-79992571D01*
X161267619Y-80049714D01*
X161267619Y-80135428D01*
X161248571Y-80192571D01*
X161229523Y-80221142D01*
X161191428Y-80249714D01*
X161039047Y-80249714D01*
D12*
%TO.C,J1*%
X144467809Y-130689428D02*
X144467809Y-129165428D01*
X144951619Y-130689428D02*
X144951619Y-129165428D01*
X145532190Y-130689428D01*
X145532190Y-129165428D01*
D13*
X152693809Y-134723142D02*
X152646190Y-134770761D01*
X152503333Y-134818380D01*
X152408095Y-134818380D01*
X152265238Y-134770761D01*
X152170000Y-134675523D01*
X152122380Y-134580285D01*
X152074761Y-134389809D01*
X152074761Y-134246952D01*
X152122380Y-134056476D01*
X152170000Y-133961238D01*
X152265238Y-133866000D01*
X152408095Y-133818380D01*
X152503333Y-133818380D01*
X152646190Y-133866000D01*
X152693809Y-133913619D01*
X152979523Y-133818380D02*
X153550952Y-133818380D01*
X153265238Y-134818380D02*
X153265238Y-133818380D01*
X154455714Y-134818380D02*
X154122380Y-134342190D01*
X153884285Y-134818380D02*
X153884285Y-133818380D01*
X154265238Y-133818380D01*
X154360476Y-133866000D01*
X154408095Y-133913619D01*
X154455714Y-134008857D01*
X154455714Y-134151714D01*
X154408095Y-134246952D01*
X154360476Y-134294571D01*
X154265238Y-134342190D01*
X153884285Y-134342190D01*
X155360476Y-134818380D02*
X154884285Y-134818380D01*
X154884285Y-133818380D01*
D14*
X158169428Y-134474857D02*
X159330571Y-134474857D01*
X158750000Y-135055428D02*
X158750000Y-133894285D01*
D13*
X147574095Y-133866000D02*
X147478857Y-133818380D01*
X147336000Y-133818380D01*
X147193142Y-133866000D01*
X147097904Y-133961238D01*
X147050285Y-134056476D01*
X147002666Y-134246952D01*
X147002666Y-134389809D01*
X147050285Y-134580285D01*
X147097904Y-134675523D01*
X147193142Y-134770761D01*
X147336000Y-134818380D01*
X147431238Y-134818380D01*
X147574095Y-134770761D01*
X147621714Y-134723142D01*
X147621714Y-134389809D01*
X147431238Y-134389809D01*
X148050285Y-134818380D02*
X148050285Y-133818380D01*
X148621714Y-134818380D01*
X148621714Y-133818380D01*
X149097904Y-134818380D02*
X149097904Y-133818380D01*
X149336000Y-133818380D01*
X149478857Y-133866000D01*
X149574095Y-133961238D01*
X149621714Y-134056476D01*
X149669333Y-134246952D01*
X149669333Y-134389809D01*
X149621714Y-134580285D01*
X149574095Y-134675523D01*
X149478857Y-134770761D01*
X149336000Y-134818380D01*
X149097904Y-134818380D01*
D12*
%TO.C,J6*%
X144199428Y-77470000D02*
X144199428Y-77276476D01*
X144272000Y-77179714D01*
X144417142Y-77082952D01*
X144707428Y-77034571D01*
X145215428Y-77034571D01*
X145505714Y-77082952D01*
X145650857Y-77179714D01*
X145723428Y-77276476D01*
X145723428Y-77470000D01*
X145650857Y-77566761D01*
X145505714Y-77663523D01*
X145215428Y-77711904D01*
X144707428Y-77711904D01*
X144417142Y-77663523D01*
X144272000Y-77566761D01*
X144199428Y-77470000D01*
X144199428Y-76599142D02*
X145433142Y-76599142D01*
X145578285Y-76550761D01*
X145650857Y-76502380D01*
X145723428Y-76405619D01*
X145723428Y-76212095D01*
X145650857Y-76115333D01*
X145578285Y-76066952D01*
X145433142Y-76018571D01*
X144199428Y-76018571D01*
X144199428Y-75679904D02*
X144199428Y-75099333D01*
X145723428Y-75389619D02*
X144199428Y-75389619D01*
D13*
X147908095Y-71128000D02*
X147812857Y-71080380D01*
X147670000Y-71080380D01*
X147527142Y-71128000D01*
X147431904Y-71223238D01*
X147384285Y-71318476D01*
X147336666Y-71508952D01*
X147336666Y-71651809D01*
X147384285Y-71842285D01*
X147431904Y-71937523D01*
X147527142Y-72032761D01*
X147670000Y-72080380D01*
X147765238Y-72080380D01*
X147908095Y-72032761D01*
X147955714Y-71985142D01*
X147955714Y-71651809D01*
X147765238Y-71651809D01*
X148384285Y-72080380D02*
X148384285Y-71080380D01*
X148955714Y-72080380D01*
X148955714Y-71080380D01*
X149431904Y-72080380D02*
X149431904Y-71080380D01*
X149670000Y-71080380D01*
X149812857Y-71128000D01*
X149908095Y-71223238D01*
X149955714Y-71318476D01*
X150003333Y-71508952D01*
X150003333Y-71651809D01*
X149955714Y-71842285D01*
X149908095Y-71937523D01*
X149812857Y-72032761D01*
X149670000Y-72080380D01*
X149431904Y-72080380D01*
D14*
X153089428Y-71482857D02*
X154250571Y-71482857D01*
X153670000Y-72063428D02*
X153670000Y-70902285D01*
D15*
%TO.C,DCDC1*%
X151366904Y-110952380D02*
X151366904Y-109952380D01*
X151605000Y-109952380D01*
X151747857Y-110000000D01*
X151843095Y-110095238D01*
X151890714Y-110190476D01*
X151938333Y-110380952D01*
X151938333Y-110523809D01*
X151890714Y-110714285D01*
X151843095Y-110809523D01*
X151747857Y-110904761D01*
X151605000Y-110952380D01*
X151366904Y-110952380D01*
X152938333Y-110857142D02*
X152890714Y-110904761D01*
X152747857Y-110952380D01*
X152652619Y-110952380D01*
X152509761Y-110904761D01*
X152414523Y-110809523D01*
X152366904Y-110714285D01*
X152319285Y-110523809D01*
X152319285Y-110380952D01*
X152366904Y-110190476D01*
X152414523Y-110095238D01*
X152509761Y-110000000D01*
X152652619Y-109952380D01*
X152747857Y-109952380D01*
X152890714Y-110000000D01*
X152938333Y-110047619D01*
X153366904Y-110952380D02*
X153366904Y-109952380D01*
X153605000Y-109952380D01*
X153747857Y-110000000D01*
X153843095Y-110095238D01*
X153890714Y-110190476D01*
X153938333Y-110380952D01*
X153938333Y-110523809D01*
X153890714Y-110714285D01*
X153843095Y-110809523D01*
X153747857Y-110904761D01*
X153605000Y-110952380D01*
X153366904Y-110952380D01*
X154938333Y-110857142D02*
X154890714Y-110904761D01*
X154747857Y-110952380D01*
X154652619Y-110952380D01*
X154509761Y-110904761D01*
X154414523Y-110809523D01*
X154366904Y-110714285D01*
X154319285Y-110523809D01*
X154319285Y-110380952D01*
X154366904Y-110190476D01*
X154414523Y-110095238D01*
X154509761Y-110000000D01*
X154652619Y-109952380D01*
X154747857Y-109952380D01*
X154890714Y-110000000D01*
X154938333Y-110047619D01*
X155890714Y-110952380D02*
X155319285Y-110952380D01*
X155605000Y-110952380D02*
X155605000Y-109952380D01*
X155509761Y-110095238D01*
X155414523Y-110190476D01*
X155319285Y-110238095D01*
D10*
X158843095Y-84642857D02*
X160366904Y-84642857D01*
X159605000Y-85404761D02*
X159605000Y-83880952D01*
X159093095Y-114892857D02*
X160616904Y-114892857D01*
X159855000Y-115654761D02*
X159855000Y-114130952D01*
D16*
%TO.C,R4*%
X150063200Y-122423000D02*
X150063200Y-123312000D01*
X152196800Y-122473800D02*
X152196800Y-123362800D01*
%TO.C,R1*%
X154612200Y-122933200D02*
X153723200Y-122933200D01*
X154561400Y-125066800D02*
X153672400Y-125066800D01*
%TO.C,R3*%
X159761000Y-78282800D02*
X160650000Y-78282800D01*
X159811800Y-76149200D02*
X160700800Y-76149200D01*
%TO.C,J2*%
G36*
X159387675Y-75949891D02*
G01*
X159231850Y-75945536D01*
X159097724Y-75936056D01*
X159032591Y-75927802D01*
X158680959Y-75851519D01*
X158346911Y-75738479D01*
X158032701Y-75590727D01*
X157740585Y-75410313D01*
X157472817Y-75199285D01*
X157231652Y-74959689D01*
X157019345Y-74693574D01*
X156838152Y-74402988D01*
X156690328Y-74089978D01*
X156578127Y-73756593D01*
X156558526Y-73681038D01*
X156493474Y-73331661D01*
X156473005Y-73038895D01*
X156758648Y-73038895D01*
X156775361Y-73288644D01*
X156787749Y-73376921D01*
X156861447Y-73703526D01*
X156970578Y-74010554D01*
X157112356Y-74296483D01*
X157283995Y-74559788D01*
X157482708Y-74798945D01*
X157705711Y-75012430D01*
X157950218Y-75198719D01*
X158213442Y-75356289D01*
X158492598Y-75483615D01*
X158784901Y-75579173D01*
X159087564Y-75641440D01*
X159397801Y-75668891D01*
X159712828Y-75660003D01*
X160029857Y-75613251D01*
X160346104Y-75527112D01*
X160564534Y-75442991D01*
X160857616Y-75293473D01*
X161126697Y-75111251D01*
X161369961Y-74899644D01*
X161585591Y-74661974D01*
X161771770Y-74401561D01*
X161926679Y-74121727D01*
X162048503Y-73825791D01*
X162135423Y-73517075D01*
X162185623Y-73198899D01*
X162197285Y-72874585D01*
X162168592Y-72547452D01*
X162164250Y-72519722D01*
X162095843Y-72217852D01*
X161990365Y-71917352D01*
X161852055Y-71628832D01*
X161724610Y-71419668D01*
X161626666Y-71288757D01*
X161504024Y-71146496D01*
X161367665Y-71004315D01*
X161228571Y-70873646D01*
X161097725Y-70765920D01*
X161093700Y-70762908D01*
X160856381Y-70607483D01*
X160592075Y-70472420D01*
X160313409Y-70363145D01*
X160033005Y-70285081D01*
X159938064Y-70266359D01*
X159786888Y-70247416D01*
X159609432Y-70237107D01*
X159420860Y-70235421D01*
X159236333Y-70242350D01*
X159071015Y-70257885D01*
X159011424Y-70266893D01*
X158690564Y-70343531D01*
X158384275Y-70458180D01*
X158095455Y-70608161D01*
X157827000Y-70790794D01*
X157581807Y-71003399D01*
X157362772Y-71243295D01*
X157172793Y-71507803D01*
X157014766Y-71794243D01*
X156891587Y-72099934D01*
X156839483Y-72276305D01*
X156791468Y-72516574D01*
X156764270Y-72776154D01*
X156758648Y-73038895D01*
X156473005Y-73038895D01*
X156469159Y-72983894D01*
X156484249Y-72640648D01*
X156537412Y-72304832D01*
X156627316Y-71979358D01*
X156752630Y-71667136D01*
X156912021Y-71371076D01*
X157104158Y-71094090D01*
X157327708Y-70839088D01*
X157581340Y-70608981D01*
X157863722Y-70406679D01*
X158124341Y-70259268D01*
X158389484Y-70143026D01*
X158677495Y-70047624D01*
X158880436Y-69997059D01*
X159048266Y-69970049D01*
X159243931Y-69953398D01*
X159454223Y-69947107D01*
X159665932Y-69951176D01*
X159865847Y-69965605D01*
X160040759Y-69990394D01*
X160073745Y-69997059D01*
X160425780Y-70092832D01*
X160754620Y-70223838D01*
X161061541Y-70390770D01*
X161347821Y-70594317D01*
X161605166Y-70825563D01*
X161845023Y-71093866D01*
X162047082Y-71381224D01*
X162211297Y-71687540D01*
X162337620Y-72012714D01*
X162426004Y-72356647D01*
X162471386Y-72664840D01*
X162483461Y-72800683D01*
X162489059Y-72913964D01*
X162488165Y-73021827D01*
X162480761Y-73141418D01*
X162470844Y-73249972D01*
X162415430Y-73597794D01*
X162319625Y-73936032D01*
X162184925Y-74261246D01*
X162012824Y-74569996D01*
X161804817Y-74858844D01*
X161736097Y-74940575D01*
X161496626Y-75183771D01*
X161228165Y-75398125D01*
X160934582Y-75581492D01*
X160619744Y-75731723D01*
X160287519Y-75846670D01*
X159974792Y-75918545D01*
X159858758Y-75933448D01*
X159713788Y-75943723D01*
X159552541Y-75949245D01*
X159397801Y-75949851D01*
X159387675Y-75949891D01*
G37*
D17*
X159387675Y-75949891D02*
X159231850Y-75945536D01*
X159097724Y-75936056D01*
X159032591Y-75927802D01*
X158680959Y-75851519D01*
X158346911Y-75738479D01*
X158032701Y-75590727D01*
X157740585Y-75410313D01*
X157472817Y-75199285D01*
X157231652Y-74959689D01*
X157019345Y-74693574D01*
X156838152Y-74402988D01*
X156690328Y-74089978D01*
X156578127Y-73756593D01*
X156558526Y-73681038D01*
X156493474Y-73331661D01*
X156473005Y-73038895D01*
X156758648Y-73038895D01*
X156775361Y-73288644D01*
X156787749Y-73376921D01*
X156861447Y-73703526D01*
X156970578Y-74010554D01*
X157112356Y-74296483D01*
X157283995Y-74559788D01*
X157482708Y-74798945D01*
X157705711Y-75012430D01*
X157950218Y-75198719D01*
X158213442Y-75356289D01*
X158492598Y-75483615D01*
X158784901Y-75579173D01*
X159087564Y-75641440D01*
X159397801Y-75668891D01*
X159712828Y-75660003D01*
X160029857Y-75613251D01*
X160346104Y-75527112D01*
X160564534Y-75442991D01*
X160857616Y-75293473D01*
X161126697Y-75111251D01*
X161369961Y-74899644D01*
X161585591Y-74661974D01*
X161771770Y-74401561D01*
X161926679Y-74121727D01*
X162048503Y-73825791D01*
X162135423Y-73517075D01*
X162185623Y-73198899D01*
X162197285Y-72874585D01*
X162168592Y-72547452D01*
X162164250Y-72519722D01*
X162095843Y-72217852D01*
X161990365Y-71917352D01*
X161852055Y-71628832D01*
X161724610Y-71419668D01*
X161626666Y-71288757D01*
X161504024Y-71146496D01*
X161367665Y-71004315D01*
X161228571Y-70873646D01*
X161097725Y-70765920D01*
X161093700Y-70762908D01*
X160856381Y-70607483D01*
X160592075Y-70472420D01*
X160313409Y-70363145D01*
X160033005Y-70285081D01*
X159938064Y-70266359D01*
X159786888Y-70247416D01*
X159609432Y-70237107D01*
X159420860Y-70235421D01*
X159236333Y-70242350D01*
X159071015Y-70257885D01*
X159011424Y-70266893D01*
X158690564Y-70343531D01*
X158384275Y-70458180D01*
X158095455Y-70608161D01*
X157827000Y-70790794D01*
X157581807Y-71003399D01*
X157362772Y-71243295D01*
X157172793Y-71507803D01*
X157014766Y-71794243D01*
X156891587Y-72099934D01*
X156839483Y-72276305D01*
X156791468Y-72516574D01*
X156764270Y-72776154D01*
X156758648Y-73038895D01*
X156473005Y-73038895D01*
X156469159Y-72983894D01*
X156484249Y-72640648D01*
X156537412Y-72304832D01*
X156627316Y-71979358D01*
X156752630Y-71667136D01*
X156912021Y-71371076D01*
X157104158Y-71094090D01*
X157327708Y-70839088D01*
X157581340Y-70608981D01*
X157863722Y-70406679D01*
X158124341Y-70259268D01*
X158389484Y-70143026D01*
X158677495Y-70047624D01*
X158880436Y-69997059D01*
X159048266Y-69970049D01*
X159243931Y-69953398D01*
X159454223Y-69947107D01*
X159665932Y-69951176D01*
X159865847Y-69965605D01*
X160040759Y-69990394D01*
X160073745Y-69997059D01*
X160425780Y-70092832D01*
X160754620Y-70223838D01*
X161061541Y-70390770D01*
X161347821Y-70594317D01*
X161605166Y-70825563D01*
X161845023Y-71093866D01*
X162047082Y-71381224D01*
X162211297Y-71687540D01*
X162337620Y-72012714D01*
X162426004Y-72356647D01*
X162471386Y-72664840D01*
X162483461Y-72800683D01*
X162489059Y-72913964D01*
X162488165Y-73021827D01*
X162480761Y-73141418D01*
X162470844Y-73249972D01*
X162415430Y-73597794D01*
X162319625Y-73936032D01*
X162184925Y-74261246D01*
X162012824Y-74569996D01*
X161804817Y-74858844D01*
X161736097Y-74940575D01*
X161496626Y-75183771D01*
X161228165Y-75398125D01*
X160934582Y-75581492D01*
X160619744Y-75731723D01*
X160287519Y-75846670D01*
X159974792Y-75918545D01*
X159858758Y-75933448D01*
X159713788Y-75943723D01*
X159552541Y-75949245D01*
X159397801Y-75949851D01*
X159387675Y-75949891D01*
G36*
X146512508Y-124024958D02*
G01*
X146149938Y-124004996D01*
X145801343Y-123945429D01*
X145467932Y-123846735D01*
X145150915Y-123709394D01*
X144851502Y-123533884D01*
X144570905Y-123320685D01*
X144445510Y-123207254D01*
X144199409Y-122945893D01*
X143991170Y-122667078D01*
X143819348Y-122368281D01*
X143682501Y-122046974D01*
X143579186Y-121700630D01*
X143574580Y-121681362D01*
X143554731Y-121593347D01*
X143540193Y-121515826D01*
X143530137Y-121439272D01*
X143523734Y-121354163D01*
X143520156Y-121250975D01*
X143518576Y-121120182D01*
X143518260Y-121033722D01*
X143518790Y-120907659D01*
X143791620Y-120907659D01*
X143796893Y-121230521D01*
X143841519Y-121551582D01*
X143925714Y-121867625D01*
X144049694Y-122175434D01*
X144147543Y-122362315D01*
X144335536Y-122648770D01*
X144553631Y-122906336D01*
X144799455Y-123133274D01*
X145070631Y-123327849D01*
X145364783Y-123488321D01*
X145679538Y-123612954D01*
X145962174Y-123689561D01*
X146094397Y-123711471D01*
X146253537Y-123727395D01*
X146425365Y-123736787D01*
X146595653Y-123739105D01*
X146750169Y-123733804D01*
X146853392Y-123723637D01*
X147173468Y-123659002D01*
X147483549Y-123558600D01*
X147778682Y-123425151D01*
X148053910Y-123261377D01*
X148304281Y-123070001D01*
X148524838Y-122853745D01*
X148601813Y-122763114D01*
X148805351Y-122478293D01*
X148971529Y-122177203D01*
X149099080Y-121862777D01*
X149186735Y-121537950D01*
X149220808Y-121330055D01*
X149231908Y-121176412D01*
X149232111Y-120997400D01*
X149222176Y-120808346D01*
X149202858Y-120624578D01*
X149178891Y-120480365D01*
X149092388Y-120158170D01*
X148969433Y-119854229D01*
X148812753Y-119570770D01*
X148625077Y-119310023D01*
X148409133Y-119074214D01*
X148167648Y-118865573D01*
X147903351Y-118686327D01*
X147618970Y-118538706D01*
X147317231Y-118424936D01*
X147000865Y-118347246D01*
X146672597Y-118307864D01*
X146513465Y-118303222D01*
X146173089Y-118323017D01*
X145846967Y-118382605D01*
X145534099Y-118482286D01*
X145233485Y-118622364D01*
X145010306Y-118757560D01*
X144763354Y-118941161D01*
X144548540Y-119141601D01*
X144356427Y-119367732D01*
X144347987Y-119378889D01*
X144159737Y-119662518D01*
X144009758Y-119960425D01*
X143898269Y-120269395D01*
X143825484Y-120586212D01*
X143791620Y-120907659D01*
X143518790Y-120907659D01*
X143518954Y-120868568D01*
X143522147Y-120737174D01*
X143528384Y-120631010D01*
X143538211Y-120541548D01*
X143552171Y-120460260D01*
X143556080Y-120441562D01*
X143647274Y-120098039D01*
X143767835Y-119782401D01*
X143920337Y-119489755D01*
X144107360Y-119215205D01*
X144331478Y-118953860D01*
X144349130Y-118935406D01*
X144612463Y-118691866D01*
X144898949Y-118483183D01*
X145206267Y-118310609D01*
X145532091Y-118175390D01*
X145874099Y-118078777D01*
X145984315Y-118056629D01*
X146139459Y-118035943D01*
X146322149Y-118023640D01*
X146518437Y-118019720D01*
X146714377Y-118024178D01*
X146896021Y-118037014D01*
X147041674Y-118056790D01*
X147383142Y-118139731D01*
X147708162Y-118259981D01*
X148014310Y-118415054D01*
X148299167Y-118602464D01*
X148560309Y-118819724D01*
X148795317Y-119064348D01*
X149001768Y-119333848D01*
X149177240Y-119625740D01*
X149319314Y-119937536D01*
X149425565Y-120266751D01*
X149487386Y-120568055D01*
X149501195Y-120691790D01*
X149510243Y-120841418D01*
X149514412Y-121003608D01*
X149513582Y-121165031D01*
X149507635Y-121312354D01*
X149496453Y-121432248D01*
X149495152Y-121441469D01*
X149423649Y-121788986D01*
X149314545Y-122120442D01*
X149170133Y-122433466D01*
X148992708Y-122725687D01*
X148784562Y-122994736D01*
X148547991Y-123238242D01*
X148285289Y-123453835D01*
X147998748Y-123639143D01*
X147690665Y-123791798D01*
X147363331Y-123909427D01*
X147031091Y-123987558D01*
X146849567Y-124010953D01*
X146636624Y-124023213D01*
X146595653Y-124023789D01*
X146512508Y-124024958D01*
G37*
X146512508Y-124024958D02*
X146149938Y-124004996D01*
X145801343Y-123945429D01*
X145467932Y-123846735D01*
X145150915Y-123709394D01*
X144851502Y-123533884D01*
X144570905Y-123320685D01*
X144445510Y-123207254D01*
X144199409Y-122945893D01*
X143991170Y-122667078D01*
X143819348Y-122368281D01*
X143682501Y-122046974D01*
X143579186Y-121700630D01*
X143574580Y-121681362D01*
X143554731Y-121593347D01*
X143540193Y-121515826D01*
X143530137Y-121439272D01*
X143523734Y-121354163D01*
X143520156Y-121250975D01*
X143518576Y-121120182D01*
X143518260Y-121033722D01*
X143518790Y-120907659D01*
X143791620Y-120907659D01*
X143796893Y-121230521D01*
X143841519Y-121551582D01*
X143925714Y-121867625D01*
X144049694Y-122175434D01*
X144147543Y-122362315D01*
X144335536Y-122648770D01*
X144553631Y-122906336D01*
X144799455Y-123133274D01*
X145070631Y-123327849D01*
X145364783Y-123488321D01*
X145679538Y-123612954D01*
X145962174Y-123689561D01*
X146094397Y-123711471D01*
X146253537Y-123727395D01*
X146425365Y-123736787D01*
X146595653Y-123739105D01*
X146750169Y-123733804D01*
X146853392Y-123723637D01*
X147173468Y-123659002D01*
X147483549Y-123558600D01*
X147778682Y-123425151D01*
X148053910Y-123261377D01*
X148304281Y-123070001D01*
X148524838Y-122853745D01*
X148601813Y-122763114D01*
X148805351Y-122478293D01*
X148971529Y-122177203D01*
X149099080Y-121862777D01*
X149186735Y-121537950D01*
X149220808Y-121330055D01*
X149231908Y-121176412D01*
X149232111Y-120997400D01*
X149222176Y-120808346D01*
X149202858Y-120624578D01*
X149178891Y-120480365D01*
X149092388Y-120158170D01*
X148969433Y-119854229D01*
X148812753Y-119570770D01*
X148625077Y-119310023D01*
X148409133Y-119074214D01*
X148167648Y-118865573D01*
X147903351Y-118686327D01*
X147618970Y-118538706D01*
X147317231Y-118424936D01*
X147000865Y-118347246D01*
X146672597Y-118307864D01*
X146513465Y-118303222D01*
X146173089Y-118323017D01*
X145846967Y-118382605D01*
X145534099Y-118482286D01*
X145233485Y-118622364D01*
X145010306Y-118757560D01*
X144763354Y-118941161D01*
X144548540Y-119141601D01*
X144356427Y-119367732D01*
X144347987Y-119378889D01*
X144159737Y-119662518D01*
X144009758Y-119960425D01*
X143898269Y-120269395D01*
X143825484Y-120586212D01*
X143791620Y-120907659D01*
X143518790Y-120907659D01*
X143518954Y-120868568D01*
X143522147Y-120737174D01*
X143528384Y-120631010D01*
X143538211Y-120541548D01*
X143552171Y-120460260D01*
X143556080Y-120441562D01*
X143647274Y-120098039D01*
X143767835Y-119782401D01*
X143920337Y-119489755D01*
X144107360Y-119215205D01*
X144331478Y-118953860D01*
X144349130Y-118935406D01*
X144612463Y-118691866D01*
X144898949Y-118483183D01*
X145206267Y-118310609D01*
X145532091Y-118175390D01*
X145874099Y-118078777D01*
X145984315Y-118056629D01*
X146139459Y-118035943D01*
X146322149Y-118023640D01*
X146518437Y-118019720D01*
X146714377Y-118024178D01*
X146896021Y-118037014D01*
X147041674Y-118056790D01*
X147383142Y-118139731D01*
X147708162Y-118259981D01*
X148014310Y-118415054D01*
X148299167Y-118602464D01*
X148560309Y-118819724D01*
X148795317Y-119064348D01*
X149001768Y-119333848D01*
X149177240Y-119625740D01*
X149319314Y-119937536D01*
X149425565Y-120266751D01*
X149487386Y-120568055D01*
X149501195Y-120691790D01*
X149510243Y-120841418D01*
X149514412Y-121003608D01*
X149513582Y-121165031D01*
X149507635Y-121312354D01*
X149496453Y-121432248D01*
X149495152Y-121441469D01*
X149423649Y-121788986D01*
X149314545Y-122120442D01*
X149170133Y-122433466D01*
X148992708Y-122725687D01*
X148784562Y-122994736D01*
X148547991Y-123238242D01*
X148285289Y-123453835D01*
X147998748Y-123639143D01*
X147690665Y-123791798D01*
X147363331Y-123909427D01*
X147031091Y-123987558D01*
X146849567Y-124010953D01*
X146636624Y-124023213D01*
X146595653Y-124023789D01*
X146512508Y-124024958D01*
D18*
%TO.C,Q1*%
X155775200Y-120500000D02*
X155775200Y-121150000D01*
X152655200Y-120500000D02*
X152655200Y-119850000D01*
X155775200Y-120500000D02*
X155775200Y-119850000D01*
X152655200Y-120500000D02*
X152655200Y-122175000D01*
%TO.C,Q2*%
X160275200Y-120437500D02*
X160275200Y-121087500D01*
X157155200Y-120437500D02*
X157155200Y-119787500D01*
X160275200Y-120437500D02*
X160275200Y-119787500D01*
X157155200Y-120437500D02*
X157155200Y-122112500D01*
D16*
%TO.C,R2*%
X158318200Y-125066800D02*
X159207200Y-125066800D01*
X158369000Y-122933200D02*
X159258000Y-122933200D01*
D10*
%TO.C,J1*%
X161120000Y-125690000D02*
X161120000Y-133310000D01*
X161120000Y-133310000D02*
X156040000Y-133310000D01*
X145880000Y-133310000D02*
X145880000Y-125690000D01*
X145880000Y-133310000D02*
X156040000Y-133310000D01*
X145880000Y-125690000D02*
X156040000Y-125690000D01*
X156040000Y-133310000D02*
X156040000Y-125690000D01*
X156040000Y-125690000D02*
X161120000Y-125690000D01*
X150960000Y-125690000D02*
X150960000Y-133310000D01*
%TO.C,J6*%
X146050000Y-80310000D02*
X156210000Y-80310000D01*
X151130000Y-72690000D02*
X151130000Y-80310000D01*
X156210000Y-80310000D02*
X156210000Y-72690000D01*
X146050000Y-80310000D02*
X146050000Y-72690000D01*
X146050000Y-72690000D02*
X156210000Y-72690000D01*
D18*
%TO.C,DCDC1*%
X144355000Y-117000000D02*
X144355000Y-82000000D01*
X161355000Y-82000000D02*
X161355000Y-117000000D01*
X160355000Y-118000000D02*
X145355000Y-118000000D01*
X145355000Y-81000000D02*
X160355000Y-81000000D01*
X160355000Y-118000000D02*
G75*
G03*
X161355000Y-117000000I0J1000000D01*
G01*
X144355000Y-117000000D02*
G75*
G03*
X145355000Y-118000000I1000000J0D01*
G01*
X145355000Y-81000000D02*
G75*
G03*
X144355000Y-82000000I0J-1000000D01*
G01*
X161355000Y-82000000D02*
G75*
G03*
X160355000Y-81000000I-1000000J0D01*
G01*
D16*
%TO.C,D1*%
X156680000Y-79811020D02*
X156680000Y-76311020D01*
D19*
X157330140Y-78011020D02*
X157330140Y-78310740D01*
D15*
X157480000Y-78311020D02*
X158080000Y-77711020D01*
D16*
X158280000Y-76211020D02*
X158280000Y-79811020D01*
D15*
X157480000Y-78311020D02*
X156880000Y-77711020D01*
D19*
X157629860Y-78310740D02*
X157330140Y-78310740D01*
D16*
X156680000Y-76311020D02*
X156680000Y-76211020D01*
X156680000Y-76211020D02*
X158280000Y-76211020D01*
X158280000Y-79811020D02*
X156680000Y-79811020D01*
D19*
X157629860Y-78011020D02*
X157330140Y-78011020D01*
D15*
X158080000Y-77711020D02*
X157480000Y-78311020D01*
D19*
X157629860Y-78011020D02*
X157629860Y-78310740D01*
D15*
X158521421Y-78411020D02*
G75*
G03*
X158521421Y-78411020I-141421J0D01*
G01*
%TD*%
M02*
