<?xml version="1.0" standalone="no"?>
 <!DOCTYPE svg PUBLIC "-//W3C//DTD SVG 1.1//EN" 
 "http://www.w3.org/Graphics/SVG/1.1/DTD/svg11.dtd"> 
<svg
  xmlns:svg="http://www.w3.org/2000/svg"
  xmlns="http://www.w3.org/2000/svg"
  xmlns:xlink="http://www.w3.org/1999/xlink"
  version="1.1"
  width="29.700220cm" height="21.000720cm" viewBox="0 0 297002200 210007200">
<title>SVG Picture created as DC_DC_Controller-F_Silkscreen.svg date 2023/07/11 14:03:27 </title>
  <desc>Picture generated by PCBNEW </desc>
<g style="fill:#000000; fill-opacity:1.000000;stroke:#000000; stroke-opacity:1.000000;
stroke-linecap:round; stroke-linejoin:round;"
 transform="translate(0 0) scale(1 1)">
</g>
<g style="fill:#000000; fill-opacity:0.0; 
stroke:#000000; stroke-width:0.000000; stroke-opacity:1; 
stroke-linecap:round; stroke-linejoin:round;">
</g>
<g style="fill:#000000; fill-opacity:0.0; 
stroke:#000000; stroke-width:21200.000000; stroke-opacity:1; 
stroke-linecap:round; stroke-linejoin:round;">
</g>
<g style="fill:#000000; fill-opacity:0.0; 
stroke:#000000; stroke-width:150000.000000; stroke-opacity:1; 
stroke-linecap:round; stroke-linejoin:round;">
<rect x="177002200.000000" y="166007200.000000" width="108000000.000000" height="32000000.000000" rx="0.000000" />
</g>
<g style="fill:#000000; fill-opacity:0.0; 
stroke:#000000; stroke-width:21200.000000; stroke-opacity:1; 
stroke-linecap:round; stroke-linejoin:round;">
</g>
<g style="fill:#000000; fill-opacity:0.0; 
stroke:#000000; stroke-width:150000.000000; stroke-opacity:1; 
stroke-linecap:round; stroke-linejoin:round;">
<rect x="10000000.000000" y="10000000.000000" width="277002200.000000" height="190007200.000000" rx="0.000000" />
</g>
<g style="fill:#000000; fill-opacity:0.0; 
stroke:#000000; stroke-width:21200.000000; stroke-opacity:1; 
stroke-linecap:round; stroke-linejoin:round;">
</g>
<g style="fill:#000000; fill-opacity:0.0; 
stroke:#000000; stroke-width:150000.000000; stroke-opacity:1; 
stroke-linecap:round; stroke-linejoin:round;">
<rect x="12000000.000000" y="12000000.000000" width="273002200.000000" height="186007200.000000" rx="0.000000" />
</g>
<g style="fill:#000000; fill-opacity:0.0; 
stroke:#000000; stroke-width:21200.000000; stroke-opacity:1; 
stroke-linecap:round; stroke-linejoin:round;">
</g>
<g style="fill:#000000; fill-opacity:0.0; 
stroke:#000000; stroke-width:150000.000000; stroke-opacity:1; 
stroke-linecap:round; stroke-linejoin:round;">
<path d="M60000000 12000000
L60000000 10000000
" />
</g>
<g style="fill:#000000; fill-opacity:0.0; 
stroke:#000000; stroke-width:21200.000000; stroke-opacity:1; 
stroke-linecap:round; stroke-linejoin:round;">
</g>
<g style="fill:#000000; fill-opacity:0.0; 
stroke:#000000; stroke-width:150000.000000; stroke-opacity:1; 
stroke-linecap:round; stroke-linejoin:round;">
<path d="M110000000 12000000
L110000000 10000000
" />
</g>
<g style="fill:#000000; fill-opacity:0.0; 
stroke:#000000; stroke-width:21200.000000; stroke-opacity:1; 
stroke-linecap:round; stroke-linejoin:round;">
</g>
<g style="fill:#000000; fill-opacity:0.0; 
stroke:#000000; stroke-width:150000.000000; stroke-opacity:1; 
stroke-linecap:round; stroke-linejoin:round;">
<path d="M160000000 12000000
L160000000 10000000
" />
</g>
<g style="fill:#000000; fill-opacity:0.0; 
stroke:#000000; stroke-width:21200.000000; stroke-opacity:1; 
stroke-linecap:round; stroke-linejoin:round;">
</g>
<g style="fill:#000000; fill-opacity:0.0; 
stroke:#000000; stroke-width:150000.000000; stroke-opacity:1; 
stroke-linecap:round; stroke-linejoin:round;">
<path d="M210000000 12000000
L210000000 10000000
" />
</g>
<g style="fill:#000000; fill-opacity:0.0; 
stroke:#000000; stroke-width:21200.000000; stroke-opacity:1; 
stroke-linecap:round; stroke-linejoin:round;">
</g>
<g style="fill:#000000; fill-opacity:0.0; 
stroke:#000000; stroke-width:150000.000000; stroke-opacity:1; 
stroke-linecap:round; stroke-linejoin:round;">
<path d="M260000000 12000000
L260000000 10000000
" />
</g>
<g style="fill:#000000; fill-opacity:0.0; 
stroke:#000000; stroke-width:21200.000000; stroke-opacity:1; 
stroke-linecap:round; stroke-linejoin:round;">
</g>
<g style="fill:#000000; fill-opacity:0.0; 
stroke:#000000; stroke-width:150000.000000; stroke-opacity:1; 
stroke-linecap:round; stroke-linejoin:round;">
<text x="35000000.000000" y="11650000.000000"
textLength="1433095.000000" font-size="1733333.000000" lengthAdjust="spacingAndGlyphs"
text-anchor="start" opacity="0">1</text>
<g class="stroked-text"><desc>1</desc>
<path d="M36065476 11588095
L35322619 11588095
" />
<path d="M35694047 11588095
L35694047 10288095
L35570238 10473809
L35446428 10597619
L35322619 10659523
" />
</g></g>
<g style="fill:#000000; fill-opacity:0.0; 
stroke:#000000; stroke-width:21200.000000; stroke-opacity:1; 
stroke-linecap:round; stroke-linejoin:round;">
</g>
<g style="fill:#000000; fill-opacity:0.0; 
stroke:#000000; stroke-width:150000.000000; stroke-opacity:1; 
stroke-linecap:round; stroke-linejoin:round;">
<text x="85000000.000000" y="11650000.000000"
textLength="1388095.000000" font-size="1733333.000000" lengthAdjust="spacingAndGlyphs"
text-anchor="start" opacity="0">2</text>
<g class="stroked-text"><desc>2</desc>
<path d="M85322619 10411904
L85384523 10350000
L85508333 10288095
L85817857 10288095
L85941666 10350000
L86003571 10411904
L86065476 10535714
L86065476 10659523
L86003571 10845238
L85260714 11588095
L86065476 11588095
" />
</g></g>
<g style="fill:#000000; fill-opacity:0.0; 
stroke:#000000; stroke-width:21200.000000; stroke-opacity:1; 
stroke-linecap:round; stroke-linejoin:round;">
</g>
<g style="fill:#000000; fill-opacity:0.0; 
stroke:#000000; stroke-width:150000.000000; stroke-opacity:1; 
stroke-linecap:round; stroke-linejoin:round;">
<text x="135000000.000000" y="11650000.000000"
textLength="1388095.000000" font-size="1733333.000000" lengthAdjust="spacingAndGlyphs"
text-anchor="start" opacity="0">3</text>
<g class="stroked-text"><desc>3</desc>
<path d="M135260714 10288095
L136065476 10288095
L135632142 10783333
L135817857 10783333
L135941666 10845238
L136003571 10907142
L136065476 11030952
L136065476 11340476
L136003571 11464285
L135941666 11526190
L135817857 11588095
L135446428 11588095
L135322619 11526190
L135260714 11464285
" />
</g></g>
<g style="fill:#000000; fill-opacity:0.0; 
stroke:#000000; stroke-width:21200.000000; stroke-opacity:1; 
stroke-linecap:round; stroke-linejoin:round;">
</g>
<g style="fill:#000000; fill-opacity:0.0; 
stroke:#000000; stroke-width:150000.000000; stroke-opacity:1; 
stroke-linecap:round; stroke-linejoin:round;">
<text x="185000000.000000" y="11650000.000000"
textLength="1388095.000000" font-size="1733333.000000" lengthAdjust="spacingAndGlyphs"
text-anchor="start" opacity="0">4</text>
<g class="stroked-text"><desc>4</desc>
<path d="M185941666 10721428
L185941666 11588095
" />
<path d="M185632142 10226190
L185322619 11154761
L186127380 11154761
" />
</g></g>
<g style="fill:#000000; fill-opacity:0.0; 
stroke:#000000; stroke-width:21200.000000; stroke-opacity:1; 
stroke-linecap:round; stroke-linejoin:round;">
</g>
<g style="fill:#000000; fill-opacity:0.0; 
stroke:#000000; stroke-width:150000.000000; stroke-opacity:1; 
stroke-linecap:round; stroke-linejoin:round;">
<text x="235000000.000000" y="11650000.000000"
textLength="1388095.000000" font-size="1733333.000000" lengthAdjust="spacingAndGlyphs"
text-anchor="start" opacity="0">5</text>
<g class="stroked-text"><desc>5</desc>
<path d="M236003571 10288095
L235384523 10288095
L235322619 10907142
L235384523 10845238
L235508333 10783333
L235817857 10783333
L235941666 10845238
L236003571 10907142
L236065476 11030952
L236065476 11340476
L236003571 11464285
L235941666 11526190
L235817857 11588095
L235508333 11588095
L235384523 11526190
L235322619 11464285
" />
</g></g>
<g style="fill:#000000; fill-opacity:0.0; 
stroke:#000000; stroke-width:21200.000000; stroke-opacity:1; 
stroke-linecap:round; stroke-linejoin:round;">
</g>
<g style="fill:#000000; fill-opacity:0.0; 
stroke:#000000; stroke-width:150000.000000; stroke-opacity:1; 
stroke-linecap:round; stroke-linejoin:round;">
<text x="285000000.000000" y="11650000.000000"
textLength="1388095.000000" font-size="1733333.000000" lengthAdjust="spacingAndGlyphs"
text-anchor="start" opacity="0">6</text>
<g class="stroked-text"><desc>6</desc>
<path d="M285941666 10288095
L285694047 10288095
L285570238 10350000
L285508333 10411904
L285384523 10597619
L285322619 10845238
L285322619 11340476
L285384523 11464285
L285446428 11526190
L285570238 11588095
L285817857 11588095
L285941666 11526190
L286003571 11464285
L286065476 11340476
L286065476 11030952
L286003571 10907142
L285941666 10845238
L285817857 10783333
L285570238 10783333
L285446428 10845238
L285384523 10907142
L285322619 11030952
" />
</g></g>
<g style="fill:#000000; fill-opacity:0.0; 
stroke:#000000; stroke-width:21200.000000; stroke-opacity:1; 
stroke-linecap:round; stroke-linejoin:round;">
</g>
<g style="fill:#000000; fill-opacity:0.0; 
stroke:#000000; stroke-width:150000.000000; stroke-opacity:1; 
stroke-linecap:round; stroke-linejoin:round;">
<path d="M60000000 198007200
L60000000 200007200
" />
</g>
<g style="fill:#000000; fill-opacity:0.0; 
stroke:#000000; stroke-width:21200.000000; stroke-opacity:1; 
stroke-linecap:round; stroke-linejoin:round;">
</g>
<g style="fill:#000000; fill-opacity:0.0; 
stroke:#000000; stroke-width:150000.000000; stroke-opacity:1; 
stroke-linecap:round; stroke-linejoin:round;">
<path d="M110000000 198007200
L110000000 200007200
" />
</g>
<g style="fill:#000000; fill-opacity:0.0; 
stroke:#000000; stroke-width:21200.000000; stroke-opacity:1; 
stroke-linecap:round; stroke-linejoin:round;">
</g>
<g style="fill:#000000; fill-opacity:0.0; 
stroke:#000000; stroke-width:150000.000000; stroke-opacity:1; 
stroke-linecap:round; stroke-linejoin:round;">
<path d="M160000000 198007200
L160000000 200007200
" />
</g>
<g style="fill:#000000; fill-opacity:0.0; 
stroke:#000000; stroke-width:21200.000000; stroke-opacity:1; 
stroke-linecap:round; stroke-linejoin:round;">
</g>
<g style="fill:#000000; fill-opacity:0.0; 
stroke:#000000; stroke-width:150000.000000; stroke-opacity:1; 
stroke-linecap:round; stroke-linejoin:round;">
<path d="M210000000 198007200
L210000000 200007200
" />
</g>
<g style="fill:#000000; fill-opacity:0.0; 
stroke:#000000; stroke-width:21200.000000; stroke-opacity:1; 
stroke-linecap:round; stroke-linejoin:round;">
</g>
<g style="fill:#000000; fill-opacity:0.0; 
stroke:#000000; stroke-width:150000.000000; stroke-opacity:1; 
stroke-linecap:round; stroke-linejoin:round;">
<path d="M260000000 198007200
L260000000 200007200
" />
</g>
<g style="fill:#000000; fill-opacity:0.0; 
stroke:#000000; stroke-width:21200.000000; stroke-opacity:1; 
stroke-linecap:round; stroke-linejoin:round;">
</g>
<g style="fill:#000000; fill-opacity:0.0; 
stroke:#000000; stroke-width:150000.000000; stroke-opacity:1; 
stroke-linecap:round; stroke-linejoin:round;">
<text x="35000000.000000" y="199657200.000000"
textLength="1388095.000000" font-size="1733333.000000" lengthAdjust="spacingAndGlyphs"
text-anchor="start" opacity="0">1</text>
<g class="stroked-text"><desc>1</desc>
<path d="M36065476 199595295
L35322619 199595295
" />
<path d="M35694047 199595295
L35694047 198295295
L35570238 198481009
L35446428 198604819
L35322619 198666723
" />
</g></g>
<g style="fill:#000000; fill-opacity:0.0; 
stroke:#000000; stroke-width:21200.000000; stroke-opacity:1; 
stroke-linecap:round; stroke-linejoin:round;">
</g>
<g style="fill:#000000; fill-opacity:0.0; 
stroke:#000000; stroke-width:150000.000000; stroke-opacity:1; 
stroke-linecap:round; stroke-linejoin:round;">
<text x="85000000.000000" y="199657200.000000"
textLength="1388095.000000" font-size="1733333.000000" lengthAdjust="spacingAndGlyphs"
text-anchor="start" opacity="0">2</text>
<g class="stroked-text"><desc>2</desc>
<path d="M85322619 198419104
L85384523 198357200
L85508333 198295295
L85817857 198295295
L85941666 198357200
L86003571 198419104
L86065476 198542914
L86065476 198666723
L86003571 198852438
L85260714 199595295
L86065476 199595295
" />
</g></g>
<g style="fill:#000000; fill-opacity:0.0; 
stroke:#000000; stroke-width:21200.000000; stroke-opacity:1; 
stroke-linecap:round; stroke-linejoin:round;">
</g>
<g style="fill:#000000; fill-opacity:0.0; 
stroke:#000000; stroke-width:150000.000000; stroke-opacity:1; 
stroke-linecap:round; stroke-linejoin:round;">
<text x="135000000.000000" y="199657200.000000"
textLength="1388095.000000" font-size="1733333.000000" lengthAdjust="spacingAndGlyphs"
text-anchor="start" opacity="0">3</text>
<g class="stroked-text"><desc>3</desc>
<path d="M135260714 198295295
L136065476 198295295
L135632142 198790533
L135817857 198790533
L135941666 198852438
L136003571 198914342
L136065476 199038152
L136065476 199347676
L136003571 199471485
L135941666 199533390
L135817857 199595295
L135446428 199595295
L135322619 199533390
L135260714 199471485
" />
</g></g>
<g style="fill:#000000; fill-opacity:0.0; 
stroke:#000000; stroke-width:21200.000000; stroke-opacity:1; 
stroke-linecap:round; stroke-linejoin:round;">
</g>
<g style="fill:#000000; fill-opacity:0.0; 
stroke:#000000; stroke-width:150000.000000; stroke-opacity:1; 
stroke-linecap:round; stroke-linejoin:round;">
<text x="185000000.000000" y="199657200.000000"
textLength="1388095.000000" font-size="1733333.000000" lengthAdjust="spacingAndGlyphs"
text-anchor="start" opacity="0">4</text>
<g class="stroked-text"><desc>4</desc>
<path d="M185941666 198728628
L185941666 199595295
" />
<path d="M185632142 198233390
L185322619 199161961
L186127380 199161961
" />
</g></g>
<g style="fill:#000000; fill-opacity:0.0; 
stroke:#000000; stroke-width:21200.000000; stroke-opacity:1; 
stroke-linecap:round; stroke-linejoin:round;">
</g>
<g style="fill:#000000; fill-opacity:0.0; 
stroke:#000000; stroke-width:150000.000000; stroke-opacity:1; 
stroke-linecap:round; stroke-linejoin:round;">
<text x="235000000.000000" y="199657200.000000"
textLength="1388095.000000" font-size="1733333.000000" lengthAdjust="spacingAndGlyphs"
text-anchor="start" opacity="0">5</text>
<g class="stroked-text"><desc>5</desc>
<path d="M236003571 198295295
L235384523 198295295
L235322619 198914342
L235384523 198852438
L235508333 198790533
L235817857 198790533
L235941666 198852438
L236003571 198914342
L236065476 199038152
L236065476 199347676
L236003571 199471485
L235941666 199533390
L235817857 199595295
L235508333 199595295
L235384523 199533390
L235322619 199471485
" />
</g></g>
<g style="fill:#000000; fill-opacity:0.0; 
stroke:#000000; stroke-width:21200.000000; stroke-opacity:1; 
stroke-linecap:round; stroke-linejoin:round;">
</g>
<g style="fill:#000000; fill-opacity:0.0; 
stroke:#000000; stroke-width:150000.000000; stroke-opacity:1; 
stroke-linecap:round; stroke-linejoin:round;">
<text x="285000000.000000" y="199657200.000000"
textLength="1388095.000000" font-size="1733333.000000" lengthAdjust="spacingAndGlyphs"
text-anchor="start" opacity="0">6</text>
<g class="stroked-text"><desc>6</desc>
<path d="M285941666 198295295
L285694047 198295295
L285570238 198357200
L285508333 198419104
L285384523 198604819
L285322619 198852438
L285322619 199347676
L285384523 199471485
L285446428 199533390
L285570238 199595295
L285817857 199595295
L285941666 199533390
L286003571 199471485
L286065476 199347676
L286065476 199038152
L286003571 198914342
L285941666 198852438
L285817857 198790533
L285570238 198790533
L285446428 198852438
L285384523 198914342
L285322619 199038152
" />
</g></g>
<g style="fill:#000000; fill-opacity:0.0; 
stroke:#000000; stroke-width:21200.000000; stroke-opacity:1; 
stroke-linecap:round; stroke-linejoin:round;">
</g>
<g style="fill:#000000; fill-opacity:0.0; 
stroke:#000000; stroke-width:150000.000000; stroke-opacity:1; 
stroke-linecap:round; stroke-linejoin:round;">
<path d="M10000000 60000000
L12000000 60000000
" />
</g>
<g style="fill:#000000; fill-opacity:0.0; 
stroke:#000000; stroke-width:21200.000000; stroke-opacity:1; 
stroke-linecap:round; stroke-linejoin:round;">
</g>
<g style="fill:#000000; fill-opacity:0.0; 
stroke:#000000; stroke-width:150000.000000; stroke-opacity:1; 
stroke-linecap:round; stroke-linejoin:round;">
<path d="M10000000 110000000
L12000000 110000000
" />
</g>
<g style="fill:#000000; fill-opacity:0.0; 
stroke:#000000; stroke-width:21200.000000; stroke-opacity:1; 
stroke-linecap:round; stroke-linejoin:round;">
</g>
<g style="fill:#000000; fill-opacity:0.0; 
stroke:#000000; stroke-width:150000.000000; stroke-opacity:1; 
stroke-linecap:round; stroke-linejoin:round;">
<path d="M10000000 160000000
L12000000 160000000
" />
</g>
<g style="fill:#000000; fill-opacity:0.0; 
stroke:#000000; stroke-width:21200.000000; stroke-opacity:1; 
stroke-linecap:round; stroke-linejoin:round;">
</g>
<g style="fill:#000000; fill-opacity:0.0; 
stroke:#000000; stroke-width:150000.000000; stroke-opacity:1; 
stroke-linecap:round; stroke-linejoin:round;">
<text x="11000000.000000" y="35650000.000000"
textLength="1264286.000000" font-size="1733333.000000" lengthAdjust="spacingAndGlyphs"
text-anchor="middle" opacity="0">A</text>
<g class="stroked-text"><desc>A</desc>
<path d="M10690476 35216666
L11309523 35216666
" />
<path d="M10566666 35588095
L11000000 34288095
L11433333 35588095
" />
</g></g>
<g style="fill:#000000; fill-opacity:0.0; 
stroke:#000000; stroke-width:21200.000000; stroke-opacity:1; 
stroke-linecap:round; stroke-linejoin:round;">
</g>
<g style="fill:#000000; fill-opacity:0.0; 
stroke:#000000; stroke-width:150000.000000; stroke-opacity:1; 
stroke-linecap:round; stroke-linejoin:round;">
<text x="11000000.000000" y="85650000.000000"
textLength="1450000.000000" font-size="1733333.000000" lengthAdjust="spacingAndGlyphs"
text-anchor="middle" opacity="0">B</text>
<g class="stroked-text"><desc>B</desc>
<path d="M11092857 84907142
L11278571 84969047
L11340476 85030952
L11402380 85154761
L11402380 85340476
L11340476 85464285
L11278571 85526190
L11154761 85588095
L10659523 85588095
L10659523 84288095
L11092857 84288095
L11216666 84350000
L11278571 84411904
L11340476 84535714
L11340476 84659523
L11278571 84783333
L11216666 84845238
L11092857 84907142
L10659523 84907142
" />
</g></g>
<g style="fill:#000000; fill-opacity:0.0; 
stroke:#000000; stroke-width:21200.000000; stroke-opacity:1; 
stroke-linecap:round; stroke-linejoin:round;">
</g>
<g style="fill:#000000; fill-opacity:0.0; 
stroke:#000000; stroke-width:150000.000000; stroke-opacity:1; 
stroke-linecap:round; stroke-linejoin:round;">
<text x="11000000.000000" y="135650000.000000"
textLength="1450000.000000" font-size="1733333.000000" lengthAdjust="spacingAndGlyphs"
text-anchor="middle" opacity="0">C</text>
<g class="stroked-text"><desc>C</desc>
<path d="M11402380 135464285
L11340476 135526190
L11154761 135588095
L11030952 135588095
L10845238 135526190
L10721428 135402380
L10659523 135278571
L10597619 135030952
L10597619 134845238
L10659523 134597619
L10721428 134473809
L10845238 134350000
L11030952 134288095
L11154761 134288095
L11340476 134350000
L11402380 134411904
" />
</g></g>
<g style="fill:#000000; fill-opacity:0.0; 
stroke:#000000; stroke-width:21200.000000; stroke-opacity:1; 
stroke-linecap:round; stroke-linejoin:round;">
</g>
<g style="fill:#000000; fill-opacity:0.0; 
stroke:#000000; stroke-width:150000.000000; stroke-opacity:1; 
stroke-linecap:round; stroke-linejoin:round;">
<text x="11000000.000000" y="185650000.000000"
textLength="1450000.000000" font-size="1733333.000000" lengthAdjust="spacingAndGlyphs"
text-anchor="middle" opacity="0">D</text>
<g class="stroked-text"><desc>D</desc>
<path d="M10659523 185588095
L10659523 184288095
L10969047 184288095
L11154761 184350000
L11278571 184473809
L11340476 184597619
L11402380 184845238
L11402380 185030952
L11340476 185278571
L11278571 185402380
L11154761 185526190
L10969047 185588095
L10659523 185588095
" />
</g></g>
<g style="fill:#000000; fill-opacity:0.0; 
stroke:#000000; stroke-width:21200.000000; stroke-opacity:1; 
stroke-linecap:round; stroke-linejoin:round;">
</g>
<g style="fill:#000000; fill-opacity:0.0; 
stroke:#000000; stroke-width:150000.000000; stroke-opacity:1; 
stroke-linecap:round; stroke-linejoin:round;">
<path d="M287002200 60000000
L285002200 60000000
" />
</g>
<g style="fill:#000000; fill-opacity:0.0; 
stroke:#000000; stroke-width:21200.000000; stroke-opacity:1; 
stroke-linecap:round; stroke-linejoin:round;">
</g>
<g style="fill:#000000; fill-opacity:0.0; 
stroke:#000000; stroke-width:150000.000000; stroke-opacity:1; 
stroke-linecap:round; stroke-linejoin:round;">
<path d="M287002200 110000000
L285002200 110000000
" />
</g>
<g style="fill:#000000; fill-opacity:0.0; 
stroke:#000000; stroke-width:21200.000000; stroke-opacity:1; 
stroke-linecap:round; stroke-linejoin:round;">
</g>
<g style="fill:#000000; fill-opacity:0.0; 
stroke:#000000; stroke-width:150000.000000; stroke-opacity:1; 
stroke-linecap:round; stroke-linejoin:round;">
<path d="M287002200 160000000
L285002200 160000000
" />
</g>
<g style="fill:#000000; fill-opacity:0.0; 
stroke:#000000; stroke-width:21200.000000; stroke-opacity:1; 
stroke-linecap:round; stroke-linejoin:round;">
</g>
<g style="fill:#000000; fill-opacity:0.0; 
stroke:#000000; stroke-width:150000.000000; stroke-opacity:1; 
stroke-linecap:round; stroke-linejoin:round;">
<text x="286002200.000000" y="35650000.000000"
textLength="1264286.000000" font-size="1733333.000000" lengthAdjust="spacingAndGlyphs"
text-anchor="middle" opacity="0">A</text>
<g class="stroked-text"><desc>A</desc>
<path d="M285692676 35216666
L286311723 35216666
" />
<path d="M285568866 35588095
L286002200 34288095
L286435533 35588095
" />
</g></g>
<g style="fill:#000000; fill-opacity:0.0; 
stroke:#000000; stroke-width:21200.000000; stroke-opacity:1; 
stroke-linecap:round; stroke-linejoin:round;">
</g>
<g style="fill:#000000; fill-opacity:0.0; 
stroke:#000000; stroke-width:150000.000000; stroke-opacity:1; 
stroke-linecap:round; stroke-linejoin:round;">
<text x="286002200.000000" y="85650000.000000"
textLength="1450000.000000" font-size="1733333.000000" lengthAdjust="spacingAndGlyphs"
text-anchor="middle" opacity="0">B</text>
<g class="stroked-text"><desc>B</desc>
<path d="M286095057 84907142
L286280771 84969047
L286342676 85030952
L286404580 85154761
L286404580 85340476
L286342676 85464285
L286280771 85526190
L286156961 85588095
L285661723 85588095
L285661723 84288095
L286095057 84288095
L286218866 84350000
L286280771 84411904
L286342676 84535714
L286342676 84659523
L286280771 84783333
L286218866 84845238
L286095057 84907142
L285661723 84907142
" />
</g></g>
<g style="fill:#000000; fill-opacity:0.0; 
stroke:#000000; stroke-width:21200.000000; stroke-opacity:1; 
stroke-linecap:round; stroke-linejoin:round;">
</g>
<g style="fill:#000000; fill-opacity:0.0; 
stroke:#000000; stroke-width:150000.000000; stroke-opacity:1; 
stroke-linecap:round; stroke-linejoin:round;">
<text x="286002200.000000" y="135650000.000000"
textLength="1450000.000000" font-size="1733333.000000" lengthAdjust="spacingAndGlyphs"
text-anchor="middle" opacity="0">C</text>
<g class="stroked-text"><desc>C</desc>
<path d="M286404580 135464285
L286342676 135526190
L286156961 135588095
L286033152 135588095
L285847438 135526190
L285723628 135402380
L285661723 135278571
L285599819 135030952
L285599819 134845238
L285661723 134597619
L285723628 134473809
L285847438 134350000
L286033152 134288095
L286156961 134288095
L286342676 134350000
L286404580 134411904
" />
</g></g>
<g style="fill:#000000; fill-opacity:0.0; 
stroke:#000000; stroke-width:21200.000000; stroke-opacity:1; 
stroke-linecap:round; stroke-linejoin:round;">
</g>
<g style="fill:#000000; fill-opacity:0.0; 
stroke:#000000; stroke-width:150000.000000; stroke-opacity:1; 
stroke-linecap:round; stroke-linejoin:round;">
<text x="286002200.000000" y="185650000.000000"
textLength="1450000.000000" font-size="1733333.000000" lengthAdjust="spacingAndGlyphs"
text-anchor="middle" opacity="0">D</text>
<g class="stroked-text"><desc>D</desc>
<path d="M285661723 185588095
L285661723 184288095
L285971247 184288095
L286156961 184350000
L286280771 184473809
L286342676 184597619
L286404580 184845238
L286404580 185030952
L286342676 185278571
L286280771 185402380
L286156961 185526190
L285971247 185588095
L285661723 185588095
" />
</g></g>
<g style="fill:#000000; fill-opacity:0.0; 
stroke:#000000; stroke-width:21200.000000; stroke-opacity:1; 
stroke-linecap:round; stroke-linejoin:round;">
</g>
<g style="fill:#000000; fill-opacity:0.0; 
stroke:#000000; stroke-width:150000.000000; stroke-opacity:1; 
stroke-linecap:round; stroke-linejoin:round;">
<text x="200002200.000000" y="193857200.000000"
textLength="7007143.000000" font-size="2000000.000000" lengthAdjust="spacingAndGlyphs"
text-anchor="start" opacity="0">Date: </text>
<g class="stroked-text"><desc>Date: </desc>
<path d="M200434342 193785771
L200434342 192285771
L200791485 192285771
L201005771 192357200
L201148628 192500057
L201220057 192642914
L201291485 192928628
L201291485 193142914
L201220057 193428628
L201148628 193571485
L201005771 193714342
L200791485 193785771
L200434342 193785771
" />
<path d="M202577200 193785771
L202577200 193000057
L202505771 192857200
L202362914 192785771
L202077200 192785771
L201934342 192857200
" />
<path d="M202577200 193714342
L202434342 193785771
L202077200 193785771
L201934342 193714342
L201862914 193571485
L201862914 193428628
L201934342 193285771
L202077200 193214342
L202434342 193214342
L202577200 193142914
" />
<path d="M203077200 192785771
L203648628 192785771
" />
<path d="M203291485 192285771
L203291485 193571485
L203362914 193714342
L203505771 193785771
L203648628 193785771
" />
<path d="M204720057 193714342
L204577200 193785771
L204291485 193785771
L204148628 193714342
L204077200 193571485
L204077200 193000057
L204148628 192857200
L204291485 192785771
L204577200 192785771
L204720057 192857200
L204791485 193000057
L204791485 193142914
L204077200 193285771
" />
<path d="M205434342 193642914
L205505771 193714342
L205434342 193785771
L205362914 193714342
L205434342 193642914
L205434342 193785771
" />
<path d="M205434342 192857200
L205505771 192928628
L205434342 193000057
L205362914 192928628
L205434342 192857200
L205434342 193000057
" />
</g></g>
<g style="fill:#000000; fill-opacity:0.0; 
stroke:#000000; stroke-width:21200.000000; stroke-opacity:1; 
stroke-linecap:round; stroke-linejoin:round;">
</g>
<g style="fill:#000000; fill-opacity:0.0; 
stroke:#000000; stroke-width:150000.000000; stroke-opacity:1; 
stroke-linecap:round; stroke-linejoin:round;">
<path d="M177002200 194507200
L285002200 194507200
" />
</g>
<g style="fill:#000000; fill-opacity:0.0; 
stroke:#000000; stroke-width:21200.000000; stroke-opacity:1; 
stroke-linecap:round; stroke-linejoin:round;">
</g>
<g style="fill:#000000; fill-opacity:0.0; 
stroke:#000000; stroke-width:150000.000000; stroke-opacity:1; 
stroke-linecap:round; stroke-linejoin:round;">
<text x="178002200.000000" y="196657200.000000"
textLength="31078571.000000" font-size="2000000.000000" lengthAdjust="spacingAndGlyphs"
text-anchor="start" opacity="0">KiCad E.D.A.  kicad (6.0.6)</text>
<g class="stroked-text"><desc>KiCad E.D.A.  kicad (6.0.6)</desc>
<path d="M178434342 196585771
L178434342 195085771
" />
<path d="M179291485 196585771
L178648628 195728628
" />
<path d="M179291485 195085771
L178434342 195942914
" />
<path d="M179934342 196585771
L179934342 195585771
" />
<path d="M179934342 195085771
L179862914 195157200
L179934342 195228628
L180005771 195157200
L179934342 195085771
L179934342 195228628
" />
<path d="M181505771 196442914
L181434342 196514342
L181220057 196585771
L181077200 196585771
L180862914 196514342
L180720057 196371485
L180648628 196228628
L180577200 195942914
L180577200 195728628
L180648628 195442914
L180720057 195300057
L180862914 195157200
L181077200 195085771
L181220057 195085771
L181434342 195157200
L181505771 195228628
" />
<path d="M182791485 196585771
L182791485 195800057
L182720057 195657200
L182577200 195585771
L182291485 195585771
L182148628 195657200
" />
<path d="M182791485 196514342
L182648628 196585771
L182291485 196585771
L182148628 196514342
L182077200 196371485
L182077200 196228628
L182148628 196085771
L182291485 196014342
L182648628 196014342
L182791485 195942914
" />
<path d="M184148628 196585771
L184148628 195085771
" />
<path d="M184148628 196514342
L184005771 196585771
L183720057 196585771
L183577200 196514342
L183505771 196442914
L183434342 196300057
L183434342 195871485
L183505771 195728628
L183577200 195657200
L183720057 195585771
L184005771 195585771
L184148628 195657200
" />
<path d="M186005771 195800057
L186505771 195800057
" />
<path d="M186720057 196585771
L186005771 196585771
L186005771 195085771
L186720057 195085771
" />
<path d="M187362914 196442914
L187434342 196514342
L187362914 196585771
L187291485 196514342
L187362914 196442914
L187362914 196585771
" />
<path d="M188077200 196585771
L188077200 195085771
L188434342 195085771
L188648628 195157200
L188791485 195300057
L188862914 195442914
L188934342 195728628
L188934342 195942914
L188862914 196228628
L188791485 196371485
L188648628 196514342
L188434342 196585771
L188077200 196585771
" />
<path d="M189577200 196442914
L189648628 196514342
L189577200 196585771
L189505771 196514342
L189577200 196442914
L189577200 196585771
" />
<path d="M190220057 196157200
L190934342 196157200
" />
<path d="M190077200 196585771
L190577200 195085771
L191077200 196585771
" />
<path d="M191577200 196442914
L191648628 196514342
L191577200 196585771
L191505771 196514342
L191577200 196442914
L191577200 196585771
" />
<path d="M194577200 196585771
L194577200 195085771
" />
<path d="M194720057 196014342
L195148628 196585771
" />
<path d="M195148628 195585771
L194577200 196157200
" />
<path d="M195791485 196585771
L195791485 195585771
" />
<path d="M195791485 195085771
L195720057 195157200
L195791485 195228628
L195862914 195157200
L195791485 195085771
L195791485 195228628
" />
<path d="M197148628 196514342
L197005771 196585771
L196720057 196585771
L196577200 196514342
L196505771 196442914
L196434342 196300057
L196434342 195871485
L196505771 195728628
L196577200 195657200
L196720057 195585771
L197005771 195585771
L197148628 195657200
" />
<path d="M198434342 196585771
L198434342 195800057
L198362914 195657200
L198220057 195585771
L197934342 195585771
L197791485 195657200
" />
<path d="M198434342 196514342
L198291485 196585771
L197934342 196585771
L197791485 196514342
L197720057 196371485
L197720057 196228628
L197791485 196085771
L197934342 196014342
L198291485 196014342
L198434342 195942914
" />
<path d="M199791485 196585771
L199791485 195085771
" />
<path d="M199791485 196514342
L199648628 196585771
L199362914 196585771
L199220057 196514342
L199148628 196442914
L199077200 196300057
L199077200 195871485
L199148628 195728628
L199220057 195657200
L199362914 195585771
L199648628 195585771
L199791485 195657200
" />
<path d="M202077200 197157200
L202005771 197085771
L201862914 196871485
L201791485 196728628
L201720057 196514342
L201648628 196157200
L201648628 195871485
L201720057 195514342
L201791485 195300057
L201862914 195157200
L202005771 194942914
L202077200 194871485
" />
<path d="M203291485 195085771
L203005771 195085771
L202862914 195157200
L202791485 195228628
L202648628 195442914
L202577200 195728628
L202577200 196300057
L202648628 196442914
L202720057 196514342
L202862914 196585771
L203148628 196585771
L203291485 196514342
L203362914 196442914
L203434342 196300057
L203434342 195942914
L203362914 195800057
L203291485 195728628
L203148628 195657200
L202862914 195657200
L202720057 195728628
L202648628 195800057
L202577200 195942914
" />
<path d="M204077200 196442914
L204148628 196514342
L204077200 196585771
L204005771 196514342
L204077200 196442914
L204077200 196585771
" />
<path d="M205077200 195085771
L205220057 195085771
L205362914 195157200
L205434342 195228628
L205505771 195371485
L205577200 195657200
L205577200 196014342
L205505771 196300057
L205434342 196442914
L205362914 196514342
L205220057 196585771
L205077200 196585771
L204934342 196514342
L204862914 196442914
L204791485 196300057
L204720057 196014342
L204720057 195657200
L204791485 195371485
L204862914 195228628
L204934342 195157200
L205077200 195085771
" />
<path d="M206220057 196442914
L206291485 196514342
L206220057 196585771
L206148628 196514342
L206220057 196442914
L206220057 196585771
" />
<path d="M207577200 195085771
L207291485 195085771
L207148628 195157200
L207077200 195228628
L206934342 195442914
L206862914 195728628
L206862914 196300057
L206934342 196442914
L207005771 196514342
L207148628 196585771
L207434342 196585771
L207577200 196514342
L207648628 196442914
L207720057 196300057
L207720057 195942914
L207648628 195800057
L207577200 195728628
L207434342 195657200
L207148628 195657200
L207005771 195728628
L206934342 195800057
L206862914 195942914
" />
<path d="M208220057 197157200
L208291485 197085771
L208434342 196871485
L208505771 196728628
L208577200 196514342
L208648628 196157200
L208648628 195871485
L208577200 195514342
L208505771 195300057
L208434342 195157200
L208291485 194942914
L208220057 194871485
" />
</g></g>
<g style="fill:#000000; fill-opacity:0.0; 
stroke:#000000; stroke-width:21200.000000; stroke-opacity:1; 
stroke-linecap:round; stroke-linejoin:round;">
</g>
<g style="fill:#000000; fill-opacity:0.0; 
stroke:#000000; stroke-width:150000.000000; stroke-opacity:1; 
stroke-linecap:round; stroke-linejoin:round;">
<path d="M177002200 191507200
L285002200 191507200
" />
</g>
<g style="fill:#000000; fill-opacity:0.0; 
stroke:#000000; stroke-width:21200.000000; stroke-opacity:1; 
stroke-linecap:round; stroke-linejoin:round;">
</g>
<g style="fill:#000000; fill-opacity:0.0; 
stroke:#000000; stroke-width:300000.000000; stroke-opacity:1; 
stroke-linecap:round; stroke-linejoin:round;">
<text x="263002200.000000" y="193857200.000000"
textLength="5935714.000000" font-size="2000000.000000" lengthAdjust="spacingAndGlyphs"
text-anchor="start" opacity="0">Rev: </text>
<g class="stroked-text"><desc>Rev: </desc>
<path d="M264411485 193785771
L263911485 193071485
" />
<path d="M263554342 193785771
L263554342 192285771
L264125771 192285771
L264268628 192357200
L264340057 192428628
L264411485 192571485
L264411485 192785771
L264340057 192928628
L264268628 193000057
L264125771 193071485
L263554342 193071485
" />
<path d="M265625771 193714342
L265482914 193785771
L265197200 193785771
L265054342 193714342
L264982914 193571485
L264982914 193000057
L265054342 192857200
L265197200 192785771
L265482914 192785771
L265625771 192857200
L265697200 193000057
L265697200 193142914
L264982914 193285771
" />
<path d="M266197200 192785771
L266554342 193785771
L266911485 192785771
" />
<path d="M267482914 193642914
L267554342 193714342
L267482914 193785771
L267411485 193714342
L267482914 193642914
L267482914 193785771
" />
<path d="M267482914 192857200
L267554342 192928628
L267482914 193000057
L267411485 192928628
L267482914 192857200
L267482914 193000057
" />
</g></g>
<g style="fill:#000000; fill-opacity:0.0; 
stroke:#000000; stroke-width:21200.000000; stroke-opacity:1; 
stroke-linecap:round; stroke-linejoin:round;">
</g>
<g style="fill:#000000; fill-opacity:0.0; 
stroke:#000000; stroke-width:150000.000000; stroke-opacity:1; 
stroke-linecap:round; stroke-linejoin:round;">
<text x="178002200.000000" y="193857200.000000"
textLength="9604286.000000" font-size="2000000.000000" lengthAdjust="spacingAndGlyphs"
text-anchor="start" opacity="0">Size: A4</text>
<g class="stroked-text"><desc>Size: A4</desc>
<path d="M178362914 193714342
L178577200 193785771
L178934342 193785771
L179077200 193714342
L179148628 193642914
L179220057 193500057
L179220057 193357200
L179148628 193214342
L179077200 193142914
L178934342 193071485
L178648628 193000057
L178505771 192928628
L178434342 192857200
L178362914 192714342
L178362914 192571485
L178434342 192428628
L178505771 192357200
L178648628 192285771
L179005771 192285771
L179220057 192357200
" />
<path d="M179862914 193785771
L179862914 192785771
" />
<path d="M179862914 192285771
L179791485 192357200
L179862914 192428628
L179934342 192357200
L179862914 192285771
L179862914 192428628
" />
<path d="M180434342 192785771
L181220057 192785771
L180434342 193785771
L181220057 193785771
" />
<path d="M182362914 193714342
L182220057 193785771
L181934342 193785771
L181791485 193714342
L181720057 193571485
L181720057 193000057
L181791485 192857200
L181934342 192785771
L182220057 192785771
L182362914 192857200
L182434342 193000057
L182434342 193142914
L181720057 193285771
" />
<path d="M183077200 193642914
L183148628 193714342
L183077200 193785771
L183005771 193714342
L183077200 193642914
L183077200 193785771
" />
<path d="M183077200 192857200
L183148628 192928628
L183077200 193000057
L183005771 192928628
L183077200 192857200
L183077200 193000057
" />
<path d="M184862914 193357200
L185577200 193357200
" />
<path d="M184720057 193785771
L185220057 192285771
L185720057 193785771
" />
<path d="M186862914 192785771
L186862914 193785771
" />
<path d="M186505771 192214342
L186148628 193285771
L187077200 193285771
" />
</g></g>
<g style="fill:#000000; fill-opacity:0.0; 
stroke:#000000; stroke-width:21200.000000; stroke-opacity:1; 
stroke-linecap:round; stroke-linejoin:round;">
</g>
<g style="fill:#000000; fill-opacity:0.0; 
stroke:#000000; stroke-width:150000.000000; stroke-opacity:1; 
stroke-linecap:round; stroke-linejoin:round;">
<text x="263002200.000000" y="196657200.000000"
textLength="8507143.000000" font-size="2000000.000000" lengthAdjust="spacingAndGlyphs"
text-anchor="start" opacity="0">Id: 1/1</text>
<g class="stroked-text"><desc>Id: 1/1</desc>
<path d="M263434342 196585771
L263434342 195085771
" />
<path d="M264791485 196585771
L264791485 195085771
" />
<path d="M264791485 196514342
L264648628 196585771
L264362914 196585771
L264220057 196514342
L264148628 196442914
L264077200 196300057
L264077200 195871485
L264148628 195728628
L264220057 195657200
L264362914 195585771
L264648628 195585771
L264791485 195657200
" />
<path d="M265505771 196442914
L265577200 196514342
L265505771 196585771
L265434342 196514342
L265505771 196442914
L265505771 196585771
" />
<path d="M265505771 195657200
L265577200 195728628
L265505771 195800057
L265434342 195728628
L265505771 195657200
L265505771 195800057
" />
<path d="M268148628 196585771
L267291485 196585771
" />
<path d="M267720057 196585771
L267720057 195085771
L267577200 195300057
L267434342 195442914
L267291485 195514342
" />
<path d="M269862914 195014342
L268577200 196942914
" />
<path d="M271148628 196585771
L270291485 196585771
" />
<path d="M270720057 196585771
L270720057 195085771
L270577200 195300057
L270434342 195442914
L270291485 195514342
" />
</g></g>
<g style="fill:#000000; fill-opacity:0.0; 
stroke:#000000; stroke-width:21200.000000; stroke-opacity:1; 
stroke-linecap:round; stroke-linejoin:round;">
</g>
<g style="fill:#000000; fill-opacity:0.0; 
stroke:#000000; stroke-width:150000.000000; stroke-opacity:1; 
stroke-linecap:round; stroke-linejoin:round;">
<path d="M177002200 187507200
L285002200 187507200
" />
</g>
<g style="fill:#000000; fill-opacity:0.0; 
stroke:#000000; stroke-width:21200.000000; stroke-opacity:1; 
stroke-linecap:round; stroke-linejoin:round;">
</g>
<g style="fill:#000000; fill-opacity:0.0; 
stroke:#000000; stroke-width:400000.000000; stroke-opacity:1; 
stroke-linecap:round; stroke-linejoin:round;">
<text x="178002200.000000" y="190307200.000000"
textLength="9409643.000000" font-size="2666666.000000" lengthAdjust="spacingAndGlyphs"
text-anchor="start" opacity="0">Title: </text>
<g class="stroked-text"><desc>Title: </desc>
<path d="M178714580 188211961
L179857438 188211961
" />
<path d="M179036009 190211961
L179286009 188211961
" />
<path d="M180274104 190211961
L180440771 188878628
" />
<path d="M180524104 188211961
L180416961 188307200
L180500295 188402438
L180607438 188307200
L180524104 188211961
L180500295 188402438
" />
<path d="M181107438 188878628
L181869342 188878628
" />
<path d="M181476485 188211961
L181262200 189926247
L181333628 190116723
L181512200 190211961
L181702676 190211961
" />
<path d="M182655057 190211961
L182476485 190116723
L182405057 189926247
L182619342 188211961
" />
<path d="M184190771 190116723
L183988390 190211961
L183607438 190211961
L183428866 190116723
L183357438 189926247
L183452676 189164342
L183571723 188973866
L183774104 188878628
L184155057 188878628
L184333628 188973866
L184405057 189164342
L184381247 189354819
L183405057 189545295
" />
<path d="M185155057 190021485
L185238390 190116723
L185131247 190211961
L185047914 190116723
L185155057 190021485
L185131247 190211961
" />
<path d="M185286009 188973866
L185369342 189069104
L185262200 189164342
L185178866 189069104
L185286009 188973866
L185262200 189164342
" />
</g></g>
<g style="fill:#000000; fill-opacity:0.0; 
stroke:#000000; stroke-width:21200.000000; stroke-opacity:1; 
stroke-linecap:round; stroke-linejoin:round;">
</g>
<g style="fill:#000000; fill-opacity:0.0; 
stroke:#000000; stroke-width:150000.000000; stroke-opacity:1; 
stroke-linecap:round; stroke-linejoin:round;">
<text x="178002200.000000" y="186457200.000000"
textLength="37662857.000000" font-size="2000000.000000" lengthAdjust="spacingAndGlyphs"
text-anchor="start" opacity="0">File: DC_DC_Controller.kicad_pcb</text>
<g class="stroked-text"><desc>File: DC_DC_Controller.kicad_pcb</desc>
<path d="M178934342 185600057
L178434342 185600057
" />
<path d="M178434342 186385771
L178434342 184885771
L179148628 184885771
" />
<path d="M179720057 186385771
L179720057 185385771
" />
<path d="M179720057 184885771
L179648628 184957200
L179720057 185028628
L179791485 184957200
L179720057 184885771
L179720057 185028628
" />
<path d="M180648628 186385771
L180505771 186314342
L180434342 186171485
L180434342 184885771
" />
<path d="M181791485 186314342
L181648628 186385771
L181362914 186385771
L181220057 186314342
L181148628 186171485
L181148628 185600057
L181220057 185457200
L181362914 185385771
L181648628 185385771
L181791485 185457200
L181862914 185600057
L181862914 185742914
L181148628 185885771
" />
<path d="M182505771 186242914
L182577200 186314342
L182505771 186385771
L182434342 186314342
L182505771 186242914
L182505771 186385771
" />
<path d="M182505771 185457200
L182577200 185528628
L182505771 185600057
L182434342 185528628
L182505771 185457200
L182505771 185600057
" />
<path d="M184362914 186385771
L184362914 184885771
L184720057 184885771
L184934342 184957200
L185077200 185100057
L185148628 185242914
L185220057 185528628
L185220057 185742914
L185148628 186028628
L185077200 186171485
L184934342 186314342
L184720057 186385771
L184362914 186385771
" />
<path d="M186720057 186242914
L186648628 186314342
L186434342 186385771
L186291485 186385771
L186077200 186314342
L185934342 186171485
L185862914 186028628
L185791485 185742914
L185791485 185528628
L185862914 185242914
L185934342 185100057
L186077200 184957200
L186291485 184885771
L186434342 184885771
L186648628 184957200
L186720057 185028628
" />
<path d="M187005771 186528628
L188148628 186528628
" />
<path d="M188505771 186385771
L188505771 184885771
L188862914 184885771
L189077200 184957200
L189220057 185100057
L189291485 185242914
L189362914 185528628
L189362914 185742914
L189291485 186028628
L189220057 186171485
L189077200 186314342
L188862914 186385771
L188505771 186385771
" />
<path d="M190862914 186242914
L190791485 186314342
L190577200 186385771
L190434342 186385771
L190220057 186314342
L190077200 186171485
L190005771 186028628
L189934342 185742914
L189934342 185528628
L190005771 185242914
L190077200 185100057
L190220057 184957200
L190434342 184885771
L190577200 184885771
L190791485 184957200
L190862914 185028628
" />
<path d="M191148628 186528628
L192291485 186528628
" />
<path d="M193505771 186242914
L193434342 186314342
L193220057 186385771
L193077200 186385771
L192862914 186314342
L192720057 186171485
L192648628 186028628
L192577200 185742914
L192577200 185528628
L192648628 185242914
L192720057 185100057
L192862914 184957200
L193077200 184885771
L193220057 184885771
L193434342 184957200
L193505771 185028628
" />
<path d="M194362914 186385771
L194220057 186314342
L194148628 186242914
L194077200 186100057
L194077200 185671485
L194148628 185528628
L194220057 185457200
L194362914 185385771
L194577200 185385771
L194720057 185457200
L194791485 185528628
L194862914 185671485
L194862914 186100057
L194791485 186242914
L194720057 186314342
L194577200 186385771
L194362914 186385771
" />
<path d="M195505771 185385771
L195505771 186385771
" />
<path d="M195505771 185528628
L195577200 185457200
L195720057 185385771
L195934342 185385771
L196077200 185457200
L196148628 185600057
L196148628 186385771
" />
<path d="M196648628 185385771
L197220057 185385771
" />
<path d="M196862914 184885771
L196862914 186171485
L196934342 186314342
L197077200 186385771
L197220057 186385771
" />
<path d="M197720057 186385771
L197720057 185385771
" />
<path d="M197720057 185671485
L197791485 185528628
L197862914 185457200
L198005771 185385771
L198148628 185385771
" />
<path d="M198862914 186385771
L198720057 186314342
L198648628 186242914
L198577200 186100057
L198577200 185671485
L198648628 185528628
L198720057 185457200
L198862914 185385771
L199077200 185385771
L199220057 185457200
L199291485 185528628
L199362914 185671485
L199362914 186100057
L199291485 186242914
L199220057 186314342
L199077200 186385771
L198862914 186385771
" />
<path d="M200220057 186385771
L200077200 186314342
L200005771 186171485
L200005771 184885771
" />
<path d="M201005771 186385771
L200862914 186314342
L200791485 186171485
L200791485 184885771
" />
<path d="M202148628 186314342
L202005771 186385771
L201720057 186385771
L201577200 186314342
L201505771 186171485
L201505771 185600057
L201577200 185457200
L201720057 185385771
L202005771 185385771
L202148628 185457200
L202220057 185600057
L202220057 185742914
L201505771 185885771
" />
<path d="M202862914 186385771
L202862914 185385771
" />
<path d="M202862914 185671485
L202934342 185528628
L203005771 185457200
L203148628 185385771
L203291485 185385771
" />
<path d="M203791485 186242914
L203862914 186314342
L203791485 186385771
L203720057 186314342
L203791485 186242914
L203791485 186385771
" />
<path d="M204505771 186385771
L204505771 184885771
" />
<path d="M204648628 185814342
L205077200 186385771
" />
<path d="M205077200 185385771
L204505771 185957200
" />
<path d="M205720057 186385771
L205720057 185385771
" />
<path d="M205720057 184885771
L205648628 184957200
L205720057 185028628
L205791485 184957200
L205720057 184885771
L205720057 185028628
" />
<path d="M207077200 186314342
L206934342 186385771
L206648628 186385771
L206505771 186314342
L206434342 186242914
L206362914 186100057
L206362914 185671485
L206434342 185528628
L206505771 185457200
L206648628 185385771
L206934342 185385771
L207077200 185457200
" />
<path d="M208362914 186385771
L208362914 185600057
L208291485 185457200
L208148628 185385771
L207862914 185385771
L207720057 185457200
" />
<path d="M208362914 186314342
L208220057 186385771
L207862914 186385771
L207720057 186314342
L207648628 186171485
L207648628 186028628
L207720057 185885771
L207862914 185814342
L208220057 185814342
L208362914 185742914
" />
<path d="M209720057 186385771
L209720057 184885771
" />
<path d="M209720057 186314342
L209577200 186385771
L209291485 186385771
L209148628 186314342
L209077200 186242914
L209005771 186100057
L209005771 185671485
L209077200 185528628
L209148628 185457200
L209291485 185385771
L209577200 185385771
L209720057 185457200
" />
<path d="M210077200 186528628
L211220057 186528628
" />
<path d="M211577200 185385771
L211577200 186885771
" />
<path d="M211577200 185457200
L211720057 185385771
L212005771 185385771
L212148628 185457200
L212220057 185528628
L212291485 185671485
L212291485 186100057
L212220057 186242914
L212148628 186314342
L212005771 186385771
L211720057 186385771
L211577200 186314342
" />
<path d="M213577200 186314342
L213434342 186385771
L213148628 186385771
L213005771 186314342
L212934342 186242914
L212862914 186100057
L212862914 185671485
L212934342 185528628
L213005771 185457200
L213148628 185385771
L213434342 185385771
L213577200 185457200
" />
<path d="M214220057 186385771
L214220057 184885771
" />
<path d="M214220057 185457200
L214362914 185385771
L214648628 185385771
L214791485 185457200
L214862914 185528628
L214934342 185671485
L214934342 186100057
L214862914 186242914
L214791485 186314342
L214648628 186385771
L214362914 186385771
L214220057 186314342
" />
</g></g>
<g style="fill:#000000; fill-opacity:0.0; 
stroke:#000000; stroke-width:21200.000000; stroke-opacity:1; 
stroke-linecap:round; stroke-linejoin:round;">
</g>
<g style="fill:#000000; fill-opacity:0.0; 
stroke:#000000; stroke-width:150000.000000; stroke-opacity:1; 
stroke-linecap:round; stroke-linejoin:round;">
<path d="M177002200 181507200
L285002200 181507200
" />
</g>
<g style="fill:#000000; fill-opacity:0.0; 
stroke:#000000; stroke-width:21200.000000; stroke-opacity:1; 
stroke-linecap:round; stroke-linejoin:round;">
</g>
<g style="fill:#000000; fill-opacity:0.0; 
stroke:#000000; stroke-width:150000.000000; stroke-opacity:1; 
stroke-linecap:round; stroke-linejoin:round;">
<text x="178002200.000000" y="183757200.000000"
textLength="8221429.000000" font-size="2000000.000000" lengthAdjust="spacingAndGlyphs"
text-anchor="start" opacity="0">Sheet: </text>
<g class="stroked-text"><desc>Sheet: </desc>
<path d="M178362914 183614342
L178577200 183685771
L178934342 183685771
L179077200 183614342
L179148628 183542914
L179220057 183400057
L179220057 183257200
L179148628 183114342
L179077200 183042914
L178934342 182971485
L178648628 182900057
L178505771 182828628
L178434342 182757200
L178362914 182614342
L178362914 182471485
L178434342 182328628
L178505771 182257200
L178648628 182185771
L179005771 182185771
L179220057 182257200
" />
<path d="M179862914 183685771
L179862914 182185771
" />
<path d="M180505771 183685771
L180505771 182900057
L180434342 182757200
L180291485 182685771
L180077200 182685771
L179934342 182757200
L179862914 182828628
" />
<path d="M181791485 183614342
L181648628 183685771
L181362914 183685771
L181220057 183614342
L181148628 183471485
L181148628 182900057
L181220057 182757200
L181362914 182685771
L181648628 182685771
L181791485 182757200
L181862914 182900057
L181862914 183042914
L181148628 183185771
" />
<path d="M183077200 183614342
L182934342 183685771
L182648628 183685771
L182505771 183614342
L182434342 183471485
L182434342 182900057
L182505771 182757200
L182648628 182685771
L182934342 182685771
L183077200 182757200
L183148628 182900057
L183148628 183042914
L182434342 183185771
" />
<path d="M183577200 182685771
L184148628 182685771
" />
<path d="M183791485 182185771
L183791485 183471485
L183862914 183614342
L184005771 183685771
L184148628 183685771
" />
<path d="M184648628 183542914
L184720057 183614342
L184648628 183685771
L184577200 183614342
L184648628 183542914
L184648628 183685771
" />
<path d="M184648628 182757200
L184720057 182828628
L184648628 182900057
L184577200 182828628
L184648628 182757200
L184648628 182900057
" />
</g></g>
<g style="fill:#000000; fill-opacity:0.0; 
stroke:#000000; stroke-width:21200.000000; stroke-opacity:1; 
stroke-linecap:round; stroke-linejoin:round;">
</g>
<g style="fill:#000000; fill-opacity:0.0; 
stroke:#000000; stroke-width:300000.000000; stroke-opacity:1; 
stroke-linecap:round; stroke-linejoin:round;">
<text x="178002200.000000" y="180757200.000000"
textLength="150000.000000" font-size="2000000.000000" lengthAdjust="spacingAndGlyphs"
text-anchor="start" opacity="0"></text>
<g class="stroked-text"><desc></desc>
</g></g>
<g style="fill:#000000; fill-opacity:0.0; 
stroke:#000000; stroke-width:21200.000000; stroke-opacity:1; 
stroke-linecap:round; stroke-linejoin:round;">
</g>
<g style="fill:#000000; fill-opacity:0.0; 
stroke:#000000; stroke-width:150000.000000; stroke-opacity:1; 
stroke-linecap:round; stroke-linejoin:round;">
<text x="178002200.000000" y="177757200.000000"
textLength="300000.000000" font-size="2000000.000000" lengthAdjust="spacingAndGlyphs"
text-anchor="start" opacity="0"></text>
<g class="stroked-text"><desc></desc>
</g></g>
<g style="fill:#000000; fill-opacity:0.0; 
stroke:#000000; stroke-width:21200.000000; stroke-opacity:1; 
stroke-linecap:round; stroke-linejoin:round;">
</g>
<g style="fill:#000000; fill-opacity:0.0; 
stroke:#000000; stroke-width:150000.000000; stroke-opacity:1; 
stroke-linecap:round; stroke-linejoin:round;">
<text x="178002200.000000" y="174757200.000000"
textLength="150000.000000" font-size="2000000.000000" lengthAdjust="spacingAndGlyphs"
text-anchor="start" opacity="0"></text>
<g class="stroked-text"><desc></desc>
</g></g>
<g style="fill:#000000; fill-opacity:0.0; 
stroke:#000000; stroke-width:21200.000000; stroke-opacity:1; 
stroke-linecap:round; stroke-linejoin:round;">
</g>
<g style="fill:#000000; fill-opacity:0.0; 
stroke:#000000; stroke-width:150000.000000; stroke-opacity:1; 
stroke-linecap:round; stroke-linejoin:round;">
<text x="178002200.000000" y="171757200.000000"
textLength="150000.000000" font-size="2000000.000000" lengthAdjust="spacingAndGlyphs"
text-anchor="start" opacity="0"></text>
<g class="stroked-text"><desc></desc>
</g></g>
<g style="fill:#000000; fill-opacity:0.0; 
stroke:#000000; stroke-width:21200.000000; stroke-opacity:1; 
stroke-linecap:round; stroke-linejoin:round;">
</g>
<g style="fill:#000000; fill-opacity:0.0; 
stroke:#000000; stroke-width:150000.000000; stroke-opacity:1; 
stroke-linecap:round; stroke-linejoin:round;">
<text x="178002200.000000" y="168757200.000000"
textLength="150000.000000" font-size="2000000.000000" lengthAdjust="spacingAndGlyphs"
text-anchor="start" opacity="0"></text>
<g class="stroked-text"><desc></desc>
</g></g>
<g style="fill:#000000; fill-opacity:0.0; 
stroke:#000000; stroke-width:21200.000000; stroke-opacity:1; 
stroke-linecap:round; stroke-linejoin:round;">
</g>
<g style="fill:#000000; fill-opacity:0.0; 
stroke:#000000; stroke-width:150000.000000; stroke-opacity:1; 
stroke-linecap:round; stroke-linejoin:round;">
<path d="M197002200 191507200
L197002200 194507200
" />
</g>
<g style="fill:#000000; fill-opacity:0.0; 
stroke:#000000; stroke-width:21200.000000; stroke-opacity:1; 
stroke-linecap:round; stroke-linejoin:round;">
</g>
<g style="fill:#000000; fill-opacity:0.0; 
stroke:#000000; stroke-width:150000.000000; stroke-opacity:1; 
stroke-linecap:round; stroke-linejoin:round;">
<path d="M261002200 191507200
L261002200 198007200
" />
</g>
<g style="fill:#F2EDA1; fill-opacity:0.0; 
stroke:#F2EDA1; stroke-width:150000.000000; stroke-opacity:1; 
stroke-linecap:round; stroke-linejoin:round;">
</g>
<g style="fill:#F2EDA1; fill-opacity:0.0; 
stroke:#F2EDA1; stroke-width:300000.000000; stroke-opacity:1; 
stroke-linecap:round; stroke-linejoin:round;">
<text x="152654000.000000" y="88380000.000000"
textLength="4435714.000000" font-size="2000000.000000" lengthAdjust="spacingAndGlyphs"
text-anchor="middle" opacity="0">OUT</text>
<g class="stroked-text"><desc>OUT</desc>
<path d="M151154000 86808571
L151439714 86808571
L151582571 86880000
L151725428 87022857
L151796857 87308571
L151796857 87808571
L151725428 88094285
L151582571 88237142
L151439714 88308571
L151154000 88308571
L151011142 88237142
L150868285 88094285
L150796857 87808571
L150796857 87308571
L150868285 87022857
L151011142 86880000
L151154000 86808571
" />
<path d="M152439714 86808571
L152439714 88022857
L152511142 88165714
L152582571 88237142
L152725428 88308571
L153011142 88308571
L153154000 88237142
L153225428 88165714
L153296857 88022857
L153296857 86808571
" />
<path d="M153796857 86808571
L154654000 86808571
" />
<path d="M154225428 88308571
L154225428 86808571
" />
</g><text x="152908000.000000" y="98727500.000000"
textLength="6604286.000000" font-size="2000000.000000" lengthAdjust="spacingAndGlyphs"
text-anchor="middle" opacity="0">Place</text>
<g class="stroked-text"><desc>Place</desc>
<path d="M150158000 98656071
L150158000 97156071
L150729428 97156071
L150872285 97227500
L150943714 97298928
L151015142 97441785
L151015142 97656071
L150943714 97798928
L150872285 97870357
L150729428 97941785
L150158000 97941785
" />
<path d="M151872285 98656071
L151729428 98584642
L151658000 98441785
L151658000 97156071
" />
<path d="M153086571 98656071
L153086571 97870357
L153015142 97727500
L152872285 97656071
L152586571 97656071
L152443714 97727500
" />
<path d="M153086571 98584642
L152943714 98656071
L152586571 98656071
L152443714 98584642
L152372285 98441785
L152372285 98298928
L152443714 98156071
L152586571 98084642
L152943714 98084642
L153086571 98013214
" />
<path d="M154443714 98584642
L154300857 98656071
L154015142 98656071
L153872285 98584642
L153800857 98513214
L153729428 98370357
L153729428 97941785
L153800857 97798928
L153872285 97727500
L154015142 97656071
L154300857 97656071
L154443714 97727500
" />
<path d="M155658000 98584642
L155515142 98656071
L155229428 98656071
L155086571 98584642
L155015142 98441785
L155015142 97870357
L155086571 97727500
L155229428 97656071
L155515142 97656071
L155658000 97727500
L155729428 97870357
L155729428 98013214
L155015142 98156071
" />
</g><text x="152908000.000000" y="101142500.000000"
textLength="8247143.000000" font-size="2000000.000000" lengthAdjust="spacingAndGlyphs"
text-anchor="middle" opacity="0">DC-DC</text>
<g class="stroked-text"><desc>DC-DC</desc>
<path d="M149336571 101071071
L149336571 99571071
L149693714 99571071
L149908000 99642500
L150050857 99785357
L150122285 99928214
L150193714 100213928
L150193714 100428214
L150122285 100713928
L150050857 100856785
L149908000 100999642
L149693714 101071071
L149336571 101071071
" />
<path d="M151693714 100928214
L151622285 100999642
L151408000 101071071
L151265142 101071071
L151050857 100999642
L150908000 100856785
L150836571 100713928
L150765142 100428214
L150765142 100213928
L150836571 99928214
L150908000 99785357
L151050857 99642500
L151265142 99571071
L151408000 99571071
L151622285 99642500
L151693714 99713928
" />
<path d="M152336571 100499642
L153479428 100499642
" />
<path d="M154193714 101071071
L154193714 99571071
L154550857 99571071
L154765142 99642500
L154908000 99785357
L154979428 99928214
L155050857 100213928
L155050857 100428214
L154979428 100713928
L154908000 100856785
L154765142 100999642
L154550857 101071071
L154193714 101071071
" />
<path d="M156550857 100928214
L156479428 100999642
L156265142 101071071
L156122285 101071071
L155908000 100999642
L155765142 100856785
L155693714 100713928
L155622285 100428214
L155622285 100213928
L155693714 99928214
L155765142 99785357
L155908000 99642500
L156122285 99571071
L156265142 99571071
L156479428 99642500
L156550857 99713928
" />
</g><text x="152908000.000000" y="103557500.000000"
textLength="8032857.000000" font-size="2000000.000000" lengthAdjust="spacingAndGlyphs"
text-anchor="middle" opacity="0">Board </text>
<g class="stroked-text"><desc>Board </desc>
<path d="M149943714 102700357
L150158000 102771785
L150229428 102843214
L150300857 102986071
L150300857 103200357
L150229428 103343214
L150158000 103414642
L150015142 103486071
L149443714 103486071
L149443714 101986071
L149943714 101986071
L150086571 102057500
L150158000 102128928
L150229428 102271785
L150229428 102414642
L150158000 102557500
L150086571 102628928
L149943714 102700357
L149443714 102700357
" />
<path d="M151158000 103486071
L151015142 103414642
L150943714 103343214
L150872285 103200357
L150872285 102771785
L150943714 102628928
L151015142 102557500
L151158000 102486071
L151372285 102486071
L151515142 102557500
L151586571 102628928
L151658000 102771785
L151658000 103200357
L151586571 103343214
L151515142 103414642
L151372285 103486071
L151158000 103486071
" />
<path d="M152943714 103486071
L152943714 102700357
L152872285 102557500
L152729428 102486071
L152443714 102486071
L152300857 102557500
" />
<path d="M152943714 103414642
L152800857 103486071
L152443714 103486071
L152300857 103414642
L152229428 103271785
L152229428 103128928
L152300857 102986071
L152443714 102914642
L152800857 102914642
L152943714 102843214
" />
<path d="M153658000 103486071
L153658000 102486071
" />
<path d="M153658000 102771785
L153729428 102628928
L153800857 102557500
L153943714 102486071
L154086571 102486071
" />
<path d="M155229428 103486071
L155229428 101986071
" />
<path d="M155229428 103414642
L155086571 103486071
L154800857 103486071
L154658000 103414642
L154586571 103343214
L154515142 103200357
L154515142 102771785
L154586571 102628928
L154658000 102557500
L154800857 102486071
L155086571 102486071
L155229428 102557500
" />
</g><text x="152908000.000000" y="105972500.000000"
textLength="5461429.000000" font-size="2000000.000000" lengthAdjust="spacingAndGlyphs"
text-anchor="middle" opacity="0">Here</text>
<g class="stroked-text"><desc>Here</desc>
<path d="M150729428 105901071
L150729428 104401071
" />
<path d="M150729428 105115357
L151586571 105115357
" />
<path d="M151586571 105901071
L151586571 104401071
" />
<path d="M152872285 105829642
L152729428 105901071
L152443714 105901071
L152300857 105829642
L152229428 105686785
L152229428 105115357
L152300857 104972500
L152443714 104901071
L152729428 104901071
L152872285 104972500
L152943714 105115357
L152943714 105258214
L152229428 105401071
" />
<path d="M153586571 105901071
L153586571 104901071
" />
<path d="M153586571 105186785
L153658000 105043928
L153729428 104972500
L153872285 104901071
L154015142 104901071
" />
<path d="M155086571 105829642
L154943714 105901071
L154658000 105901071
L154515142 105829642
L154443714 105686785
L154443714 105115357
L154515142 104972500
L154658000 104901071
L154943714 104901071
L155086571 104972500
L155158000 105115357
L155158000 105258214
L154443714 105401071
" />
</g><text x="152908000.000000" y="115558000.000000"
textLength="2675714.000000" font-size="2000000.000000" lengthAdjust="spacingAndGlyphs"
text-anchor="middle" opacity="0">IN</text>
<g class="stroked-text"><desc>IN</desc>
<path d="M152122285 115486571
L152122285 113986571
" />
<path d="M152836571 115486571
L152836571 113986571
L153693714 115486571
L153693714 113986571
" />
</g></g>
<g style="fill:#F2EDA1; fill-opacity:0.0; 
stroke:#F2EDA1; stroke-width:100000.000000; stroke-opacity:1; 
stroke-linecap:round; stroke-linejoin:round;">
<text x="160020000.000000" y="80564000.000000"
textLength="3037619.000000" font-size="533333.000000" lengthAdjust="spacingAndGlyphs"
text-anchor="middle" opacity="0">LED PWR</text>
<g class="stroked-text"><desc>LED PWR</desc>
<path d="M158981904 80535428
L158791428 80535428
L158791428 79935428
" />
<path d="M159115238 80221142
L159248571 80221142
" />
<path d="M159305714 80535428
L159115238 80535428
L159115238 79935428
L159305714 79935428
" />
<path d="M159477142 80535428
L159477142 79935428
L159572380 79935428
L159629523 79964000
L159667619 80021142
L159686666 80078285
L159705714 80192571
L159705714 80278285
L159686666 80392571
L159667619 80449714
L159629523 80506857
L159572380 80535428
L159477142 80535428
" />
<path d="M160181904 80535428
L160181904 79935428
L160334285 79935428
L160372380 79964000
L160391428 79992571
L160410476 80049714
L160410476 80135428
L160391428 80192571
L160372380 80221142
L160334285 80249714
L160181904 80249714
" />
<path d="M160543809 79935428
L160639047 80535428
L160715238 80106857
L160791428 80535428
L160886666 79935428
" />
<path d="M161267619 80535428
L161134285 80249714
" />
<path d="M161039047 80535428
L161039047 79935428
L161191428 79935428
L161229523 79964000
L161248571 79992571
L161267619 80049714
L161267619 80135428
L161248571 80192571
L161229523 80221142
L161191428 80249714
L161039047 80249714
" />
</g></g>
<g style="fill:#F2EDA1; fill-opacity:0.0; 
stroke:#F2EDA1; stroke-width:254000.000000; stroke-opacity:1; 
stroke-linecap:round; stroke-linejoin:round;">
<text x="145000000.000000" y="130762000.000000"
textLength="1678190.000000" font-size="1354666.000000" lengthAdjust="spacingAndGlyphs"
text-anchor="middle" opacity="0">IN</text>
<g class="stroked-text"><desc>IN</desc>
<path d="M144467809 130689428
L144467809 129165428
" />
<path d="M144951619 130689428
L144951619 129165428
L145532190 130689428
L145532190 129165428
" />
</g></g>
<g style="fill:#F2EDA1; fill-opacity:0.0; 
stroke:#F2EDA1; stroke-width:250000.000000; stroke-opacity:1; 
stroke-linecap:round; stroke-linejoin:round;">
<text x="153670000.000000" y="134866000.000000"
textLength="3901629.000000" font-size="1333333.000000" lengthAdjust="spacingAndGlyphs"
text-anchor="middle" opacity="0">CTRL</text>
<g class="stroked-text"><desc>CTRL</desc>
<path d="M152693809 134723142
L152646190 134770761
L152503333 134818380
L152408095 134818380
L152265238 134770761
L152170000 134675523
L152122380 134580285
L152074761 134389809
L152074761 134246952
L152122380 134056476
L152170000 133961238
L152265238 133866000
L152408095 133818380
L152503333 133818380
L152646190 133866000
L152693809 133913619
" />
<path d="M152979523 133818380
L153550952 133818380
" />
<path d="M153265238 134818380
L153265238 133818380
" />
<path d="M154455714 134818380
L154122380 134342190
" />
<path d="M153884285 134818380
L153884285 133818380
L154265238 133818380
L154360476 133866000
L154408095 133913619
L154455714 134008857
L154455714 134151714
L154408095 134246952
L154360476 134294571
L154265238 134342190
L153884285 134342190
" />
<path d="M155360476 134818380
L154884285 134818380
L154884285 133818380
" />
</g></g>
<g style="fill:#F2EDA1; fill-opacity:0.0; 
stroke:#F2EDA1; stroke-width:304800.000000; stroke-opacity:1; 
stroke-linecap:round; stroke-linejoin:round;">
<text x="158750000.000000" y="135128000.000000"
textLength="2211857.000000" font-size="2032000.000000" lengthAdjust="spacingAndGlyphs"
text-anchor="middle" opacity="0">+</text>
<g class="stroked-text"><desc>+</desc>
<path d="M158169428 134474857
L159330571 134474857
" />
<path d="M158750000 135055428
L158750000 133894285
" />
</g></g>
<g style="fill:#F2EDA1; fill-opacity:0.0; 
stroke:#F2EDA1; stroke-width:250000.000000; stroke-opacity:1; 
stroke-linecap:round; stroke-linejoin:round;">
<text x="148336000.000000" y="134866000.000000"
textLength="3443859.000000" font-size="1333333.000000" lengthAdjust="spacingAndGlyphs"
text-anchor="middle" opacity="0">GND</text>
<g class="stroked-text"><desc>GND</desc>
<path d="M147574095 133866000
L147478857 133818380
L147336000 133818380
L147193142 133866000
L147097904 133961238
L147050285 134056476
L147002666 134246952
L147002666 134389809
L147050285 134580285
L147097904 134675523
L147193142 134770761
L147336000 134818380
L147431238 134818380
L147574095 134770761
L147621714 134723142
L147621714 134389809
L147431238 134389809
" />
<path d="M148050285 134818380
L148050285 133818380
L148621714 134818380
L148621714 133818380
" />
<path d="M149097904 134818380
L149097904 133818380
L149336000 133818380
L149478857 133866000
L149574095 133961238
L149621714 134056476
L149669333 134246952
L149669333 134389809
L149621714 134580285
L149574095 134675523
L149478857 134770761
L149336000 134818380
L149097904 134818380
" />
</g></g>
<g style="fill:#F2EDA1; fill-opacity:0.0; 
stroke:#F2EDA1; stroke-width:254000.000000; stroke-opacity:1; 
stroke-linecap:round; stroke-linejoin:round;">
<g transform="rotate(-90.000000 145034000.000000 76454000.000000)">
<text x="145034000.000000" y="77216000.000000"
textLength="3227857.000000" font-size="1354666.000000" lengthAdjust="spacingAndGlyphs"
text-anchor="middle" opacity="0">OUT</text>
</g>
<g class="stroked-text"><desc>OUT</desc>
<path d="M144199428 77470000
L144199428 77276476
L144272000 77179714
L144417142 77082952
L144707428 77034571
L145215428 77034571
L145505714 77082952
L145650857 77179714
L145723428 77276476
L145723428 77470000
L145650857 77566761
L145505714 77663523
L145215428 77711904
L144707428 77711904
L144417142 77663523
L144272000 77566761
L144199428 77470000
" />
<path d="M144199428 76599142
L145433142 76599142
L145578285 76550761
L145650857 76502380
L145723428 76405619
L145723428 76212095
L145650857 76115333
L145578285 76066952
L145433142 76018571
L144199428 76018571
" />
<path d="M144199428 75679904
L144199428 75099333
" />
<path d="M145723428 75389619
L144199428 75389619
" />
</g></g>
<g style="fill:#F2EDA1; fill-opacity:0.0; 
stroke:#F2EDA1; stroke-width:250000.000000; stroke-opacity:1; 
stroke-linecap:round; stroke-linejoin:round;">
<text x="148670000.000000" y="72128000.000000"
textLength="3377819.000000" font-size="1333333.000000" lengthAdjust="spacingAndGlyphs"
text-anchor="middle" opacity="0">GND</text>
<g class="stroked-text"><desc>GND</desc>
<path d="M147908095 71128000
L147812857 71080380
L147670000 71080380
L147527142 71128000
L147431904 71223238
L147384285 71318476
L147336666 71508952
L147336666 71651809
L147384285 71842285
L147431904 71937523
L147527142 72032761
L147670000 72080380
L147765238 72080380
L147908095 72032761
L147955714 71985142
L147955714 71651809
L147765238 71651809
" />
<path d="M148384285 72080380
L148384285 71080380
L148955714 72080380
L148955714 71080380
" />
<path d="M149431904 72080380
L149431904 71080380
L149670000 71080380
L149812857 71128000
L149908095 71223238
L149955714 71318476
L150003333 71508952
L150003333 71651809
L149955714 71842285
L149908095 71937523
L149812857 72032761
L149670000 72080380
L149431904 72080380
" />
</g></g>
<g style="fill:#F2EDA1; fill-opacity:0.0; 
stroke:#F2EDA1; stroke-width:304800.000000; stroke-opacity:1; 
stroke-linecap:round; stroke-linejoin:round;">
<text x="153670000.000000" y="72136000.000000"
textLength="2211857.000000" font-size="2032000.000000" lengthAdjust="spacingAndGlyphs"
text-anchor="middle" opacity="0">+</text>
<g class="stroked-text"><desc>+</desc>
<path d="M153089428 71482857
L154250571 71482857
" />
<path d="M153670000 72063428
L153670000 70902285
" />
</g></g>
<g style="fill:#F2EDA1; fill-opacity:0.0; 
stroke:#F2EDA1; stroke-width:150000.000000; stroke-opacity:1; 
stroke-linecap:round; stroke-linejoin:round;">
<text x="153605000.000000" y="111000000.000000"
textLength="5348621.000000" font-size="1333333.000000" lengthAdjust="spacingAndGlyphs"
text-anchor="middle" opacity="0">DCDC1</text>
<g class="stroked-text"><desc>DCDC1</desc>
<path d="M151366904 110952380
L151366904 109952380
L151605000 109952380
L151747857 110000000
L151843095 110095238
L151890714 110190476
L151938333 110380952
L151938333 110523809
L151890714 110714285
L151843095 110809523
L151747857 110904761
L151605000 110952380
L151366904 110952380
" />
<path d="M152938333 110857142
L152890714 110904761
L152747857 110952380
L152652619 110952380
L152509761 110904761
L152414523 110809523
L152366904 110714285
L152319285 110523809
L152319285 110380952
L152366904 110190476
L152414523 110095238
L152509761 110000000
L152652619 109952380
L152747857 109952380
L152890714 110000000
L152938333 110047619
" />
<path d="M153366904 110952380
L153366904 109952380
L153605000 109952380
L153747857 110000000
L153843095 110095238
L153890714 110190476
L153938333 110380952
L153938333 110523809
L153890714 110714285
L153843095 110809523
L153747857 110904761
L153605000 110952380
L153366904 110952380
" />
<path d="M154938333 110857142
L154890714 110904761
L154747857 110952380
L154652619 110952380
L154509761 110904761
L154414523 110809523
L154366904 110714285
L154319285 110523809
L154319285 110380952
L154366904 110190476
L154414523 110095238
L154509761 110000000
L154652619 109952380
L154747857 109952380
L154890714 110000000
L154938333 110047619
" />
<path d="M155890714 110952380
L155319285 110952380
" />
<path d="M155605000 110952380
L155605000 109952380
L155509761 110095238
L155414523 110190476
L155319285 110238095
" />
</g></g>
<g style="fill:#F2EDA1; fill-opacity:0.0; 
stroke:#F2EDA1; stroke-width:300000.000000; stroke-opacity:1; 
stroke-linecap:round; stroke-linejoin:round;">
<text x="159605000.000000" y="85500000.000000"
textLength="2671190.000000" font-size="2666666.000000" lengthAdjust="spacingAndGlyphs"
text-anchor="middle" opacity="0">+</text>
<g class="stroked-text"><desc>+</desc>
<path d="M158843095 84642857
L160366904 84642857
" />
<path d="M159605000 85404761
L159605000 83880952
" />
</g><text x="159855000.000000" y="115750000.000000"
textLength="2866190.000000" font-size="2666666.000000" lengthAdjust="spacingAndGlyphs"
text-anchor="middle" opacity="0">+</text>
<g class="stroked-text"><desc>+</desc>
<path d="M159093095 114892857
L160616904 114892857
" />
<path d="M159855000 115654761
L159855000 114130952
" />
</g></g>
<g style="fill:#F2EDA1; fill-opacity:0.0; 
stroke:#F2EDA1; stroke-width:200000.000000; stroke-opacity:1; 
stroke-linecap:round; stroke-linejoin:round;">
<path d="M154612200 122933200
L153723200 122933200
" />
<path d="M154561400 125066800
L153672400 125066800
" />
<path d="M159761000 78282800
L160650000 78282800
" />
<path d="M159811800 76149200
L160700800 76149200
" />
</g>
<g style="fill:#F2EDA1; fill-opacity:1.0; 
stroke:#F2EDA1; stroke-width:10000.000000; stroke-opacity:1; 
stroke-linecap:round; stroke-linejoin:round;">
<path style="fill:#F2EDA1; fill-opacity:1.0; 
stroke:#F2EDA1; stroke-width:10000.000000; stroke-opacity:1; 
stroke-linecap:round; stroke-linejoin:round;fill-rule:evenodd;"
d="M 159387675.000000,75949891.000000
159231850.000000,75945536.000000
159097724.000000,75936056.000000
159032591.000000,75927802.000000
158680959.000000,75851519.000000
158346911.000000,75738479.000000
158032701.000000,75590727.000000
157740585.000000,75410313.000000
157472817.000000,75199285.000000
157231652.000000,74959689.000000
157019345.000000,74693574.000000
156838152.000000,74402988.000000
156690328.000000,74089978.000000
156578127.000000,73756593.000000
156558526.000000,73681038.000000
156493474.000000,73331661.000000
156473005.000000,73038895.000000
156758648.000000,73038895.000000
156775361.000000,73288644.000000
156787749.000000,73376921.000000
156861447.000000,73703526.000000
156970578.000000,74010554.000000
157112356.000000,74296483.000000
157283995.000000,74559788.000000
157482708.000000,74798945.000000
157705711.000000,75012430.000000
157950218.000000,75198719.000000
158213442.000000,75356289.000000
158492598.000000,75483615.000000
158784901.000000,75579173.000000
159087564.000000,75641440.000000
159397801.000000,75668891.000000
159712828.000000,75660003.000000
160029857.000000,75613251.000000
160346104.000000,75527112.000000
160564534.000000,75442991.000000
160857616.000000,75293473.000000
161126697.000000,75111251.000000
161369961.000000,74899644.000000
161585591.000000,74661974.000000
161771770.000000,74401561.000000
161926679.000000,74121727.000000
162048503.000000,73825791.000000
162135423.000000,73517075.000000
162185623.000000,73198899.000000
162197285.000000,72874585.000000
162168592.000000,72547452.000000
162164250.000000,72519722.000000
162095843.000000,72217852.000000
161990365.000000,71917352.000000
161852055.000000,71628832.000000
161724610.000000,71419668.000000
161626666.000000,71288757.000000
161504024.000000,71146496.000000
161367665.000000,71004315.000000
161228571.000000,70873646.000000
161097725.000000,70765920.000000
161093700.000000,70762908.000000
160856381.000000,70607483.000000
160592075.000000,70472420.000000
160313409.000000,70363145.000000
160033005.000000,70285081.000000
159938064.000000,70266359.000000
159786888.000000,70247416.000000
159609432.000000,70237107.000000
159420860.000000,70235421.000000
159236333.000000,70242350.000000
159071015.000000,70257885.000000
159011424.000000,70266893.000000
158690564.000000,70343531.000000
158384275.000000,70458180.000000
158095455.000000,70608161.000000
157827000.000000,70790794.000000
157581807.000000,71003399.000000
157362772.000000,71243295.000000
157172793.000000,71507803.000000
157014766.000000,71794243.000000
156891587.000000,72099934.000000
156839483.000000,72276305.000000
156791468.000000,72516574.000000
156764270.000000,72776154.000000
156758648.000000,73038895.000000
156473005.000000,73038895.000000
156469159.000000,72983894.000000
156484249.000000,72640648.000000
156537412.000000,72304832.000000
156627316.000000,71979358.000000
156752630.000000,71667136.000000
156912021.000000,71371076.000000
157104158.000000,71094090.000000
157327708.000000,70839088.000000
157581340.000000,70608981.000000
157863722.000000,70406679.000000
158124341.000000,70259268.000000
158389484.000000,70143026.000000
158677495.000000,70047624.000000
158880436.000000,69997059.000000
159048266.000000,69970049.000000
159243931.000000,69953398.000000
159454223.000000,69947107.000000
159665932.000000,69951176.000000
159865847.000000,69965605.000000
160040759.000000,69990394.000000
160073745.000000,69997059.000000
160425780.000000,70092832.000000
160754620.000000,70223838.000000
161061541.000000,70390770.000000
161347821.000000,70594317.000000
161605166.000000,70825563.000000
161845023.000000,71093866.000000
162047082.000000,71381224.000000
162211297.000000,71687540.000000
162337620.000000,72012714.000000
162426004.000000,72356647.000000
162471386.000000,72664840.000000
162483461.000000,72800683.000000
162489059.000000,72913964.000000
162488165.000000,73021827.000000
162480761.000000,73141418.000000
162470844.000000,73249972.000000
162415430.000000,73597794.000000
162319625.000000,73936032.000000
162184925.000000,74261246.000000
162012824.000000,74569996.000000
161804817.000000,74858844.000000
161736097.000000,74940575.000000
161496626.000000,75183771.000000
161228165.000000,75398125.000000
160934582.000000,75581492.000000
160619744.000000,75731723.000000
160287519.000000,75846670.000000
159974792.000000,75918545.000000
159858758.000000,75933448.000000
159713788.000000,75943723.000000
159552541.000000,75949245.000000
159397801.000000,75949851.000000
Z" /> 
<path style="fill:#F2EDA1; fill-opacity:1.0; 
stroke:#F2EDA1; stroke-width:10000.000000; stroke-opacity:1; 
stroke-linecap:round; stroke-linejoin:round;fill-rule:evenodd;"
d="M 146512508.000000,124024958.000000
146149938.000000,124004996.000000
145801343.000000,123945429.000000
145467932.000000,123846735.000000
145150915.000000,123709394.000000
144851502.000000,123533884.000000
144570905.000000,123320685.000000
144445510.000000,123207254.000000
144199409.000000,122945893.000000
143991170.000000,122667078.000000
143819348.000000,122368281.000000
143682501.000000,122046974.000000
143579186.000000,121700630.000000
143574580.000000,121681362.000000
143554731.000000,121593347.000000
143540193.000000,121515826.000000
143530137.000000,121439272.000000
143523734.000000,121354163.000000
143520156.000000,121250975.000000
143518576.000000,121120182.000000
143518260.000000,121033722.000000
143518790.000000,120907659.000000
143791620.000000,120907659.000000
143796893.000000,121230521.000000
143841519.000000,121551582.000000
143925714.000000,121867625.000000
144049694.000000,122175434.000000
144147543.000000,122362315.000000
144335536.000000,122648770.000000
144553631.000000,122906336.000000
144799455.000000,123133274.000000
145070631.000000,123327849.000000
145364783.000000,123488321.000000
145679538.000000,123612954.000000
145962174.000000,123689561.000000
146094397.000000,123711471.000000
146253537.000000,123727395.000000
146425365.000000,123736787.000000
146595653.000000,123739105.000000
146750169.000000,123733804.000000
146853392.000000,123723637.000000
147173468.000000,123659002.000000
147483549.000000,123558600.000000
147778682.000000,123425151.000000
148053910.000000,123261377.000000
148304281.000000,123070001.000000
148524838.000000,122853745.000000
148601813.000000,122763114.000000
148805351.000000,122478293.000000
148971529.000000,122177203.000000
149099080.000000,121862777.000000
149186735.000000,121537950.000000
149220808.000000,121330055.000000
149231908.000000,121176412.000000
149232111.000000,120997400.000000
149222176.000000,120808346.000000
149202858.000000,120624578.000000
149178891.000000,120480365.000000
149092388.000000,120158170.000000
148969433.000000,119854229.000000
148812753.000000,119570770.000000
148625077.000000,119310023.000000
148409133.000000,119074214.000000
148167648.000000,118865573.000000
147903351.000000,118686327.000000
147618970.000000,118538706.000000
147317231.000000,118424936.000000
147000865.000000,118347246.000000
146672597.000000,118307864.000000
146513465.000000,118303222.000000
146173089.000000,118323017.000000
145846967.000000,118382605.000000
145534099.000000,118482286.000000
145233485.000000,118622364.000000
145010306.000000,118757560.000000
144763354.000000,118941161.000000
144548540.000000,119141601.000000
144356427.000000,119367732.000000
144347987.000000,119378889.000000
144159737.000000,119662518.000000
144009758.000000,119960425.000000
143898269.000000,120269395.000000
143825484.000000,120586212.000000
143791620.000000,120907659.000000
143518790.000000,120907659.000000
143518954.000000,120868568.000000
143522147.000000,120737174.000000
143528384.000000,120631010.000000
143538211.000000,120541548.000000
143552171.000000,120460260.000000
143556080.000000,120441562.000000
143647274.000000,120098039.000000
143767835.000000,119782401.000000
143920337.000000,119489755.000000
144107360.000000,119215205.000000
144331478.000000,118953860.000000
144349130.000000,118935406.000000
144612463.000000,118691866.000000
144898949.000000,118483183.000000
145206267.000000,118310609.000000
145532091.000000,118175390.000000
145874099.000000,118078777.000000
145984315.000000,118056629.000000
146139459.000000,118035943.000000
146322149.000000,118023640.000000
146518437.000000,118019720.000000
146714377.000000,118024178.000000
146896021.000000,118037014.000000
147041674.000000,118056790.000000
147383142.000000,118139731.000000
147708162.000000,118259981.000000
148014310.000000,118415054.000000
148299167.000000,118602464.000000
148560309.000000,118819724.000000
148795317.000000,119064348.000000
149001768.000000,119333848.000000
149177240.000000,119625740.000000
149319314.000000,119937536.000000
149425565.000000,120266751.000000
149487386.000000,120568055.000000
149501195.000000,120691790.000000
149510243.000000,120841418.000000
149514412.000000,121003608.000000
149513582.000000,121165031.000000
149507635.000000,121312354.000000
149496453.000000,121432248.000000
149495152.000000,121441469.000000
149423649.000000,121788986.000000
149314545.000000,122120442.000000
149170133.000000,122433466.000000
148992708.000000,122725687.000000
148784562.000000,122994736.000000
148547991.000000,123238242.000000
148285289.000000,123453835.000000
147998748.000000,123639143.000000
147690665.000000,123791798.000000
147363331.000000,123909427.000000
147031091.000000,123987558.000000
146849567.000000,124010953.000000
146636624.000000,124023213.000000
146595653.000000,124023789.000000
Z" /> 
</g>
<g style="fill:#F2EDA1; fill-opacity:1.0; 
stroke:#F2EDA1; stroke-width:120000.000000; stroke-opacity:1; 
stroke-linecap:round; stroke-linejoin:round;">
</g>
<g style="fill:#F2EDA1; fill-opacity:0.0; 
stroke:#F2EDA1; stroke-width:120000.000000; stroke-opacity:1; 
stroke-linecap:round; stroke-linejoin:round;">
<path d="M155775200 120500000
L155775200 121150000
" />
<path d="M152655200 120500000
L152655200 119850000
" />
<path d="M155775200 120500000
L155775200 119850000
" />
<path d="M152655200 120500000
L152655200 122175000
" />
<path d="M160275200 120437500
L160275200 121087500
" />
<path d="M157155200 120437500
L157155200 119787500
" />
<path d="M160275200 120437500
L160275200 119787500
" />
<path d="M157155200 120437500
L157155200 122112500
" />
</g>
<g style="fill:#F2EDA1; fill-opacity:0.0; 
stroke:#F2EDA1; stroke-width:200000.000000; stroke-opacity:1; 
stroke-linecap:round; stroke-linejoin:round;">
<path d="M158318200 125066800
L159207200 125066800
" />
<path d="M158369000 122933200
L159258000 122933200
" />
</g>
<g style="fill:#F2EDA1; fill-opacity:0.0; 
stroke:#F2EDA1; stroke-width:300000.000000; stroke-opacity:1; 
stroke-linecap:round; stroke-linejoin:round;">
<path d="M161120000 125690000
L161120000 133310000
" />
<path d="M161120000 133310000
L156040000 133310000
" />
<path d="M145880000 133310000
L145880000 125690000
" />
<path d="M145880000 133310000
L156040000 133310000
" />
<path d="M145880000 125690000
L156040000 125690000
" />
<path d="M156040000 133310000
L156040000 125690000
" />
<path d="M156040000 125690000
L161120000 125690000
" />
<path d="M150960000 125690000
L150960000 133310000
" />
</g>
<g style="fill:#F2EDA1; fill-opacity:0.0; 
stroke:#F2EDA1; stroke-width:200000.000000; stroke-opacity:1; 
stroke-linecap:round; stroke-linejoin:round;">
<path d="M152196800 122473800
L152196800 123362800
" />
<path d="M150063200 122423000
L150063200 123312000
" />
</g>
<g style="fill:#F2EDA1; fill-opacity:0.0; 
stroke:#F2EDA1; stroke-width:300000.000000; stroke-opacity:1; 
stroke-linecap:round; stroke-linejoin:round;">
<path d="M146050000 80310000
L156210000 80310000
" />
<path d="M151130000 72690000
L151130000 80310000
" />
<path d="M156210000 80310000
L156210000 72690000
" />
<path d="M146050000 80310000
L146050000 72690000
" />
<path d="M146050000 72690000
L156210000 72690000
" />
</g>
<g style="fill:#F2EDA1; fill-opacity:0.0; 
stroke:#F2EDA1; stroke-width:120000.000000; stroke-opacity:1; 
stroke-linecap:round; stroke-linejoin:round;">
<path d="M144355000 117000000
L144355000 82000000
" />
<path d="M161355000 82000000
L161355000 117000000
" />
<path d="M160355000 118000000
L145355000 118000000
" />
<path d="M145355000 81000000
L160355000 81000000
" />
<path d="M160355000.000000 118000000.000000 A1000000.000000 1000000.000000 0.0 0 0 161355000.000000 117000000.000000" />
<path d="M144355000.000000 117000000.000000 A1000000.000000 1000000.000000 0.0 0 0 145355000.000000 118000000.000000" />
<path d="M145355000.000000 81000000.000000 A1000000.000000 1000000.000000 0.0 0 0 144355000.000000 82000000.000000" />
<path d="M161355000.000000 82000000.000000 A1000000.000000 1000000.000000 0.0 0 0 160355000.000000 81000000.000000" />
</g>
<g style="fill:#F2EDA1; fill-opacity:0.0; 
stroke:#F2EDA1; stroke-width:200000.000000; stroke-opacity:1; 
stroke-linecap:round; stroke-linejoin:round;">
<path d="M156680000 79811020
L156680000 76311020
" />
</g>
<g style="fill:#F2EDA1; fill-opacity:0.0; 
stroke:#F2EDA1; stroke-width:66040.000000; stroke-opacity:1; 
stroke-linecap:round; stroke-linejoin:round;">
<path d="M157330140 78011020
L157330140 78310740
" />
</g>
<g style="fill:#F2EDA1; fill-opacity:0.0; 
stroke:#F2EDA1; stroke-width:150000.000000; stroke-opacity:1; 
stroke-linecap:round; stroke-linejoin:round;">
<path d="M157480000 78311020
L158080000 77711020
" />
</g>
<g style="fill:#F2EDA1; fill-opacity:0.0; 
stroke:#F2EDA1; stroke-width:200000.000000; stroke-opacity:1; 
stroke-linecap:round; stroke-linejoin:round;">
<path d="M158280000 76211020
L158280000 79811020
" />
</g>
<g style="fill:#F2EDA1; fill-opacity:0.0; 
stroke:#F2EDA1; stroke-width:150000.000000; stroke-opacity:1; 
stroke-linecap:round; stroke-linejoin:round;">
<path d="M157480000 78311020
L156880000 77711020
" />
</g>
<g style="fill:#F2EDA1; fill-opacity:0.0; 
stroke:#F2EDA1; stroke-width:66040.000000; stroke-opacity:1; 
stroke-linecap:round; stroke-linejoin:round;">
<path d="M157629860 78310740
L157330140 78310740
" />
</g>
<g style="fill:#F2EDA1; fill-opacity:0.0; 
stroke:#F2EDA1; stroke-width:200000.000000; stroke-opacity:1; 
stroke-linecap:round; stroke-linejoin:round;">
<path d="M156680000 76311020
L156680000 76211020
" />
<path d="M156680000 76211020
L158280000 76211020
" />
<path d="M158280000 79811020
L156680000 79811020
" />
</g>
<g style="fill:#F2EDA1; fill-opacity:0.0; 
stroke:#F2EDA1; stroke-width:66040.000000; stroke-opacity:1; 
stroke-linecap:round; stroke-linejoin:round;">
<path d="M157629860 78011020
L157330140 78011020
" />
</g>
<g style="fill:#F2EDA1; fill-opacity:0.0; 
stroke:#F2EDA1; stroke-width:150000.000000; stroke-opacity:1; 
stroke-linecap:round; stroke-linejoin:round;">
<path d="M158080000 77711020
L157480000 78311020
" />
</g>
<g style="fill:#F2EDA1; fill-opacity:0.0; 
stroke:#F2EDA1; stroke-width:66040.000000; stroke-opacity:1; 
stroke-linecap:round; stroke-linejoin:round;">
<path d="M157629860 78011020
L157629860 78310740
" />
</g>
<g style="fill:#F2EDA1; fill-opacity:0.0; 
stroke:#F2EDA1; stroke-width:150000.000000; stroke-opacity:1; 
stroke-linecap:round; stroke-linejoin:round;">
<circle cx="158380000.000000" cy="78411020.000000" r="141421.000000" /> 
<g >
</g>
<g >
</g>
<g >
</g>
<g >
</g>
<g >
</g>
<g >
</g>
<g >
</g>
<g >
</g>
<g >
</g>
<g >
</g>
<g >
</g>
<g >
</g>
<g >
</g>
<g >
</g>
<g >
</g>
<g >
</g>
<g >
</g>
</g>
<g style="fill:#000000; fill-opacity:0.0; 
stroke:#000000; stroke-width:150000.000000; stroke-opacity:1; 
stroke-linecap:round; stroke-linejoin:round;">
</g>
<g style="fill:#D0D2CD; fill-opacity:0.0; 
stroke:#D0D2CD; stroke-width:150000.000000; stroke-opacity:1; 
stroke-linecap:round; stroke-linejoin:round;">
</g>
<g style="fill:#D0D2CD; fill-opacity:0.0; 
stroke:#D0D2CD; stroke-width:100000.000000; stroke-opacity:1; 
stroke-linecap:round; stroke-linejoin:round;">
<path d="M144968108 135125288
L144798908 134998888
" />
<path d="M144264708 71649388
L144374708 71468388
" />
<path d="M144264708 134350488
L144172308 134158188
" />
<path d="M145544108 135401388
L145341808 135327688
" />
<path d="M144011308 133525888
L144000008 133300388
" />
<path d="M159800408 70500388
L160025908 70511388
" />
<path d="M145149508 70764388
L145341808 70672388
" />
<path d="M144642808 71142388
L144798908 71001388
" />
<path d="M161357108 71142388
L161498908 71299388
" />
<path d="M144044508 72255288
L144098608 72044088
" />
<path d="M161625308 71468388
L161735308 71649388
" />
<path d="M162000008 133300388
L161988708 133525888
" />
<path d="M144798908 71001388
L144968108 70874388
" />
<path d="M160244708 70544388
L160455908 70598388
" />
</g>
<g style="fill:#D0D2CD; fill-opacity:1.0; 
stroke:#D0D2CD; stroke-width:1.000000; stroke-opacity:1; 
stroke-linecap:round; stroke-linejoin:round;">
<circle cx="144000008.000000" cy="133300388.000000" r="50000.000000" /> 
</g>
<g style="fill:#D0D2CD; fill-opacity:1.0; 
stroke:#D0D2CD; stroke-width:100000.000000; stroke-opacity:1; 
stroke-linecap:round; stroke-linejoin:round;">
</g>
<g style="fill:#D0D2CD; fill-opacity:0.0; 
stroke:#D0D2CD; stroke-width:100000.000000; stroke-opacity:1; 
stroke-linecap:round; stroke-linejoin:round;">
<path d="M161901408 72044088
L161955508 72255288
" />
<path d="M161901408 133955888
L161827708 134158188
" />
<path d="M145149508 135235288
L144968108 135125288
" />
<path d="M144374708 71468388
L144501108 71299388
" />
<path d="M161357108 134857188
L161201108 134998888
" />
<path d="M160025908 135488688
L159800408 135499988
" />
<path d="M144098608 133955888
L144044508 133744788
" />
<path d="M159800408 135499988
L146199608 135499988
" />
<path d="M146199608 70500388
L159800408 70500388
" />
<path d="M145755208 135455488
L145544108 135401388
" />
<path d="M161625308 134531888
L161498908 134701088
" />
<path d="M161988708 72474088
L162000008 72699688
" />
<path d="M161735308 134350488
L161625308 134531888
" />
<path d="M162000008 72699688
L162000008 133300388
" />
<path d="M145341808 135327688
L145149508 135235288
" />
<path d="M144501108 71299388
L144642808 71142388
" />
<path d="M144374708 134531888
L144264708 134350488
" />
<path d="M161031908 70874388
L161201108 71001388
" />
<path d="M160850508 135235288
L160658108 135327688
" />
<path d="M144098608 72044088
L144172308 71841388
" />
<path d="M144501108 134701088
L144374708 134531888
" />
<path d="M161201108 134998888
L161031908 135125288
" />
<path d="M161955508 133744788
L161901408 133955888
" />
<path d="M160025908 70511388
L160244708 70544388
" />
<path d="M160658108 135327688
L160455908 135401388
" />
<path d="M161498908 134701088
L161357108 134857188
" />
<path d="M161988708 133525888
L161955508 133744788
" />
<path d="M144172308 71841388
L144264708 71649388
" />
<path d="M144798908 134998888
L144642808 134857188
" />
<path d="M161201108 71001388
L161357108 71142388
" />
<path d="M160658108 70672388
L160850508 70764388
" />
<path d="M160455908 70598388
L160658108 70672388
" />
<path d="M144011308 72474088
L144044508 72255288
" />
<path d="M160850508 70764388
L161031908 70874388
" />
<path d="M161498908 71299388
L161625308 71468388
" />
</g>
<g style="fill:#D0D2CD; fill-opacity:1.0; 
stroke:#D0D2CD; stroke-width:1.000000; stroke-opacity:1; 
stroke-linecap:round; stroke-linejoin:round;">
<circle cx="144000008.000000" cy="133300388.000000" r="50000.000000" /> 
</g>
<g style="fill:#D0D2CD; fill-opacity:1.0; 
stroke:#D0D2CD; stroke-width:100000.000000; stroke-opacity:1; 
stroke-linecap:round; stroke-linejoin:round;">
</g>
<g style="fill:#D0D2CD; fill-opacity:0.0; 
stroke:#D0D2CD; stroke-width:100000.000000; stroke-opacity:1; 
stroke-linecap:round; stroke-linejoin:round;">
<path d="M145544108 70598388
L145755208 70544388
" />
<path d="M144172308 134158188
L144098608 133955888
" />
<path d="M144044508 133744788
L144011308 133525888
" />
<path d="M144000008 133300388
L144000008 72699688
" />
<path d="M146199608 135499988
L145974108 135488688
" />
<path d="M144968108 70874388
L145149508 70764388
" />
<path d="M144000008 72699688
L144011308 72474088
" />
<path d="M161827708 71841388
L161901408 72044088
" />
<path d="M161735308 71649388
L161827708 71841388
" />
<path d="M145974108 135488688
L145755208 135455488
" />
<path d="M161827708 134158188
L161735308 134350488
" />
<path d="M145974108 70511388
L146199608 70500388
" />
<path d="M161031908 135125288
L160850508 135235288
" />
<path d="M144642808 134857188
L144501108 134701088
" />
<path d="M160244708 135455488
L160025908 135488688
" />
<path d="M161955508 72255288
L161988708 72474088
" />
<path d="M160455908 135401388
L160244708 135455488
" />
<path d="M145341808 70672388
L145544108 70598388
" />
<path d="M145755208 70544388
L145974108 70511388
" />
<g >
</g>
<g >
</g>
<g >
</g>
<g >
</g>
<g >
</g>
<g >
</g>
<g >
</g>
<g >
</g>
<g >
</g>
<g >
</g>
<g >
</g>
<g >
</g>
<g >
</g>
<g >
</g>
<g >
</g>
<g >
</g>
<g >
</g>
</g> 
</svg>
